<svg width="232px" height="232px" viewBox="0 0 232 232" version="1.1" xmlns="http://www.w3.org/2000/svg" xmlns:xlink="http://www.w3.org/1999/xlink">
	<g id="Page-1" stroke="none" stroke-width="1" fill="none" fill-rule="evenodd">
		<g id="18_white_logo" fill-rule="nonzero">
			<path d="M211.6,115.8 C211.6,168.6 168.6,211.6 115.8,211.6 C63,211.6 20,168.6 20,115.8 C20,63 63,20 115.8,20 C168.6,20 211.6,63 211.6,115.8 Z M115.8,0 C51.9,0 0,51.8 0,115.8 C0,179.8 51.9,231.6 115.8,231.6 C179.7,231.6 231.6,179.8 231.6,115.8 C231.6,51.8 179.8,0 115.8,0 L115.8,0 Z" id="Shape" fill="#F83C2E"></path>
			<path d="M211.6,115.8 C211.6,168.6 168.6,211.6 115.8,211.6 C63,211.6 20,168.6 20,115.8 C20,63 63,20 115.8,20 C168.6,20 211.6,63 211.6,115.8 Z" id="Path" fill="#FFFFFF"></path>
			<g id="Group" transform="translate(35.000000, 82.000000)" fill="#231F20">
				<path d="M35.5,0.6 L35.5,63.8 L18.1,63.8 L18.1,22.4 C15.3,24.5 12.5,26.3 9.9,27.6 C7.3,28.9 3.9,30.2 7.10542736e-15,31.4 L7.10542736e-15,17.2 C5.9,15.3 10.4,13 13.7,10.4 C17,7.7 19.5,4.5 21.3,0.6 L35.5,0.6 L35.5,0.6 Z" id="Path"></path>
				<path d="M64.7,30.4 C62,29 60,27.3 58.8,25.6 C57.1,23.2 56.3,20.4 56.3,17.2 C56.3,12 58.7,7.7 63.6,4.4 C67.4,1.9 72.5,0.6 78.7,0.6 C87,0.6 93.2,2.2 97.1,5.3 C101.1,8.5 103.1,12.5 103.1,17.3 C103.1,20.1 102.3,22.7 100.7,25.1 C99.5,26.9 97.6,28.7 95.1,30.4 C98.5,32 101,34.1 102.6,36.8 C104.3,39.5 105.1,42.4 105.1,45.6 C105.1,48.7 104.4,51.6 103,54.3 C101.6,57 99.8,59.1 97.7,60.6 C95.6,62.1 93,63.2 89.9,63.8 C86.8,64.5 83.5,64.8 80,64.8 C73.4,64.8 68.4,64 64.9,62.5 C61.4,60.9 58.8,58.7 57,55.6 C55.2,52.6 54.3,49.2 54.3,45.5 C54.3,41.9 55.1,38.8 56.8,36.2 C58.6,33.7 61.2,31.8 64.7,30.4 Z M71.5,44.9 C71.5,47.6 72.3,49.9 74,51.6 C75.7,53.3 77.6,54.2 79.7,54.2 C81.8,54.2 83.6,53.3 85.3,51.5 C86.9,49.7 87.8,47.5 87.8,44.8 C87.8,42.1 87,39.8 85.3,38.1 C83.6,36.3 81.7,35.5 79.6,35.5 C77.5,35.5 75.6,36.3 74,38 C72.3,39.8 71.5,42.1 71.5,44.9 Z M72.5,18.2 C72.5,20.3 73.2,22.1 74.5,23.4 C75.8,24.7 77.6,25.4 79.9,25.4 C81.9,25.4 83.5,24.7 84.8,23.4 C86.1,22.1 86.7,20.4 86.7,18.4 C86.7,16.3 86,14.5 84.7,13.2 C83.4,11.9 81.7,11.2 79.6,11.2 C77.5,11.2 75.8,11.9 74.5,13.2 C73.1,14.4 72.5,16.1 72.5,18.2 Z" id="Shape"></path>
				<polygon id="Path" points="114.1 25.9 130.3 25.9 130.3 9.6 144 9.6 144 25.9 160.3 25.9 160.3 39.6 144 39.6 144 55.8 130.3 55.8 130.3 39.6 114.1 39.6 114.1 25.9"></polygon>
			</g>
		</g>
	</g>
</svg>