<svg width="34" height="20" viewBox="0 0 34 20" fill="none" xmlns="http://www.w3.org/2000/svg">
<path d="M14.7367 7.06124H14.1299L14.3225 6.11681H14.9399C15.1615 6.11681 15.3014 6.12226 15.3594 6.13314C15.4632 6.15492 15.5432 6.19847 15.5995 6.26379C15.6558 6.32911 15.6839 6.41257 15.6839 6.51418C15.6839 6.61761 15.654 6.71468 15.5942 6.8054C15.5344 6.89613 15.4447 6.96145 15.3251 7.00136C15.2055 7.04128 15.0094 7.06124 14.7367 7.06124Z" fill="white"/>
<path d="M13.779 8.79768H14.5468C14.8687 8.79768 15.0846 8.77636 15.1945 8.73372C15.3044 8.69108 15.3924 8.62077 15.4584 8.52279C15.5243 8.42481 15.5573 8.32138 15.5573 8.21252C15.5573 8.08006 15.5098 7.97074 15.4148 7.88455C15.3198 7.79837 15.1615 7.75527 14.9399 7.75527H13.9901L13.779 8.79768Z" fill="white"/>
<path d="M19.1957 7.89408L18.9714 6.28828L18.0374 7.89408H19.1957Z" fill="white"/>
<path d="M7.01126 13.1826H7.43104C7.85607 13.1826 8.13811 13.1572 8.27716 13.1063C8.41622 13.0554 8.52509 12.9756 8.6038 12.8668C8.68251 12.758 8.72187 12.6439 8.72187 12.5246C8.72187 12.3842 8.66502 12.279 8.55133 12.2088C8.48137 12.1667 8.33007 12.1456 8.09744 12.1456H7.2264L7.01126 13.1826Z" fill="white"/>
<path d="M12.0513 13.8643L11.8282 12.3114L10.8995 13.8643H12.0513Z" fill="white"/>
<path d="M29.1022 13.1826H29.522C29.947 13.1826 30.2291 13.1572 30.3681 13.1063C30.5072 13.0554 30.6161 12.9756 30.6948 12.8668C30.7735 12.758 30.8128 12.6439 30.8128 12.5246C30.8128 12.3842 30.756 12.279 30.6423 12.2088C30.5723 12.1667 30.421 12.1456 30.1884 12.1456H29.3174L29.1022 13.1826Z" fill="white"/>
<path fill-rule="evenodd" clip-rule="evenodd" d="M0.83095 3C0.372029 3 0 3.42756 0 3.95497V16.045C0 16.5724 0.372029 17 0.83095 17H32.6691C33.128 17 33.5 16.5724 33.5 16.045V3.95497C33.5 3.42756 33.128 3 32.6691 3H0.83095ZM2.5125 5.33145H11.3014V5.99645H2.5125V5.33145ZM13.6629 5.45L12.8529 9.44H14.6761C15.0789 9.44 15.3964 9.39282 15.6285 9.29847C15.8607 9.20412 16.0428 9.04944 16.1747 8.83442C16.3066 8.61941 16.3726 8.39215 16.3726 8.15264C16.3726 7.97119 16.3167 7.80835 16.205 7.6641C16.0933 7.51985 15.9381 7.4196 15.7393 7.36335C15.9891 7.27988 16.1738 7.15695 16.2934 6.99456C16.413 6.83217 16.4728 6.64029 16.4728 6.41892C16.4728 6.25381 16.4385 6.10321 16.3699 5.96712C16.3013 5.83104 16.2011 5.72217 16.0692 5.64052C15.9372 5.55887 15.7763 5.50443 15.5863 5.47722C15.472 5.45907 15.2715 5.45 14.9848 5.45H13.6629ZM17.7604 8.55817H19.2933L19.4226 9.44H20.1772L19.5492 5.45H18.6654L16.4781 9.44H17.296L17.7604 8.55817ZM23.0135 9.44H23.7549L24.5623 5.45H23.8235L23.2826 8.11998L22.2352 5.45H21.4911L20.6838 9.44H21.4252L21.9687 6.75913L23.0135 9.44ZM24.557 9.44L25.3643 5.45H26.1611L25.8181 7.14561L27.607 5.45H28.6729L26.9368 7.01497L28.2112 9.44H27.3115L26.3564 7.54026L25.6044 8.21796L25.3564 9.44H24.557ZM17.511 14.109L18.264 14.0696C18.2745 14.3099 18.3156 14.4722 18.3873 14.5565C18.5028 14.6933 18.7162 14.7618 19.0275 14.7618C19.2864 14.7618 19.4735 14.7153 19.5889 14.6223C19.7044 14.5293 19.7621 14.417 19.7621 14.2854C19.7621 14.1713 19.7149 14.0748 19.6204 13.9959C19.554 13.938 19.3716 13.8441 19.0734 13.7142C18.7752 13.5844 18.5574 13.4761 18.4201 13.3892C18.2828 13.3024 18.1748 13.1896 18.0961 13.051C18.0174 12.9124 17.978 12.7501 17.978 12.5641C17.978 12.2395 18.0952 11.9702 18.3296 11.7561C18.564 11.542 18.9033 11.435 19.3476 11.435C19.7988 11.435 20.1482 11.5412 20.3957 11.7535C20.6432 11.9658 20.7792 12.2483 20.8037 12.6009L20.0455 12.6352C20.0262 12.4509 19.9598 12.3097 19.8461 12.2114C19.7324 12.1132 19.5645 12.064 19.3423 12.064C19.1237 12.064 18.9676 12.1026 18.874 12.1798C18.7804 12.257 18.7336 12.3544 18.7336 12.472C18.7336 12.5825 18.7765 12.6738 18.8622 12.7457C18.9479 12.8194 19.1377 12.9203 19.4315 13.0484C19.8741 13.2396 20.1557 13.3949 20.2763 13.5142C20.4565 13.6897 20.5466 13.9151 20.5466 14.1906C20.5466 14.531 20.4123 14.8218 20.1438 15.0631C19.8754 15.3044 19.5015 15.425 19.0222 15.425C18.6917 15.425 18.4053 15.3693 18.163 15.2579C17.9208 15.1465 17.7498 14.9916 17.6501 14.7933C17.5504 14.5951 17.504 14.367 17.511 14.109ZM3.34867 15.3592H4.14101L4.81003 12.1456H5.92245L6.05626 11.5008H3.02597L2.89216 12.1456H4.02032L3.34867 15.3592ZM5.76504 15.3592H6.55737L6.89057 13.7616H7.21328C7.40043 13.7616 7.53161 13.7871 7.60683 13.8379C7.72926 13.9239 7.8447 14.0915 7.95314 14.3406C8.15254 14.8021 8.28634 15.1416 8.35456 15.3592H9.20462C8.98773 14.8082 8.79096 14.3819 8.6143 14.0801C8.52509 13.9309 8.42977 13.8108 8.32832 13.7195C8.72537 13.6686 9.02184 13.5366 9.21773 13.3234C9.41363 13.1102 9.51158 12.8396 9.51158 12.5115C9.51158 12.2816 9.4613 12.086 9.36072 11.9245C9.26015 11.7631 9.12809 11.6521 8.96455 11.5916C8.80101 11.5311 8.57232 11.5008 8.27847 11.5008H6.57049L5.76504 15.3592ZM10.624 14.5065H12.1483L12.2769 15.3592H13.0272L12.4028 11.5008H11.5239L9.34892 15.3592H10.1622L10.624 14.5065ZM15.8476 15.3592H16.5849L17.3877 11.5008H16.6531L16.1153 14.0827L15.0737 11.5008H14.3338L13.531 15.3592H14.2682L14.8087 12.7668L15.8476 15.3592ZM21.7692 11.5008L20.9637 15.3592H21.7561L22.0971 13.7169H23.9599L24.0937 13.0721H22.2309L22.4251 12.1456H24.3246L24.461 11.5008H21.7692ZM24.2564 15.3592L25.0592 11.5008H27.9111L27.7773 12.1456H25.7177L25.5341 13.022H27.5254L27.3916 13.6669H25.4003L25.1589 14.7144H27.3969L27.2604 15.3592H24.2564ZM27.856 15.3592H28.6483L28.9815 13.7616H29.3043C29.4914 13.7616 29.6226 13.7871 29.6978 13.8379C29.8202 13.9239 29.9357 14.0915 30.0441 14.3406C30.2435 14.8021 30.3773 15.1416 30.4455 15.3592H31.2956C31.0787 14.8082 30.8819 14.3819 30.7053 14.0801C30.6161 13.9309 30.5207 13.8108 30.4193 13.7195C30.8163 13.6686 31.1128 13.5366 31.3087 13.3234C31.5046 13.1102 31.6026 12.8396 31.6026 12.5115C31.6026 12.2816 31.5523 12.086 31.4517 11.9245C31.3511 11.7631 31.2191 11.6521 31.0555 11.5916C30.892 11.5311 30.6633 11.5008 30.3694 11.5008H28.6615L27.856 15.3592ZM10.1295 6.99H2.5125V7.655H10.1295V6.99ZM2.5125 8.65645H8.37176V9.32145H2.5125V8.65645Z" fill="white"/>
</svg>
