<svg width="59" height="20" viewBox="0 0 59 20" fill="none" xmlns="http://www.w3.org/2000/svg">
<path d="M7.40299 10.2544C7.21505 11.0044 6.03293 10.6943 5.49206 10.5525C5.44342 10.5397 5.39991 10.5283 5.36283 10.5192L5.72683 9.06999C5.77199 9.08118 5.82716 9.09347 5.88966 9.1074C6.44908 9.23206 7.59556 9.48755 7.40299 10.2544Z" fill="white"/>
<path d="M6.00209 8.43489C6.45304 8.55441 7.43668 8.8151 7.60802 8.13343C7.78299 7.43619 6.82696 7.226 6.36006 7.12336C6.30754 7.11181 6.26121 7.10162 6.22337 7.09226L5.89335 8.40662C5.92449 8.41433 5.96116 8.42405 6.00209 8.43489Z" fill="white"/>
<path fill-rule="evenodd" clip-rule="evenodd" d="M12.1139 10.4515C11.307 13.6658 8.02885 15.6219 4.7919 14.8204C1.55628 14.019 -0.413455 10.7633 0.393846 7.54919C1.20039 4.33454 4.4785 2.37818 7.7145 3.17955C10.9513 3.98091 12.9208 7.23701 12.1139 10.4515ZM8.91753 8.14525C9.03779 7.34688 8.42571 6.9177 7.58876 6.63139L7.86025 5.5499L7.19738 5.38584L6.93307 6.43883C6.75881 6.3957 6.57982 6.35501 6.40198 6.3147L6.66818 5.25478L6.00569 5.09072L5.73401 6.17183C5.58977 6.1392 5.44817 6.10695 5.31072 6.07302L5.31148 6.06964L4.39732 5.84296L4.22098 6.54608C4.22098 6.54608 4.7128 6.65801 4.70241 6.66495C4.97089 6.73151 5.01941 6.90795 5.01129 7.04782L4.70204 8.27987C4.72054 8.28456 4.74452 8.29131 4.77095 8.30181L4.74848 8.29623C4.73312 8.29241 4.71716 8.28844 4.7009 8.28456L4.26742 10.0105C4.23457 10.0915 4.15131 10.213 3.96365 10.1669C3.97025 10.1764 3.48183 10.0474 3.48183 10.0474L3.15276 10.801L4.01538 11.0145C4.11169 11.0385 4.20684 11.0631 4.301 11.0875C4.36371 11.1038 4.42606 11.1199 4.48794 11.1357L4.21361 12.2295L4.87573 12.3936L5.14741 11.3113C5.32828 11.3601 5.50386 11.4051 5.67567 11.4475L5.40493 12.5246L6.0678 12.6887L6.34213 11.5969C7.47246 11.8093 8.32243 11.7236 8.68021 10.7083C8.9685 9.89085 8.66586 9.4193 8.07114 9.1118C8.50425 9.01261 8.83049 8.72968 8.91753 8.14525Z" fill="white"/>
<path fill-rule="evenodd" clip-rule="evenodd" d="M17.9175 6.63026C18.4075 6.63026 18.8308 6.71745 19.1865 6.88863C19.5439 7.06151 19.8388 7.29438 20.0753 7.58725C20.3087 7.88162 20.4824 8.22568 20.5945 8.61999C20.7059 9.01543 20.7618 9.44048 20.7618 9.89554C20.7618 10.5945 20.6328 11.2549 20.3725 11.8774C20.1121 12.5008 19.7589 13.0416 19.3096 13.5028C18.8606 13.9635 18.3304 14.3267 17.7191 14.595C17.1087 14.8635 16.4451 14.9977 15.7326 14.9977C15.6404 14.9977 15.4785 14.9951 15.2496 14.9904C15.0208 14.9857 14.7578 14.9623 14.4633 14.9227C14.1669 14.8817 13.8535 14.8209 13.5225 14.7396C13.1917 14.6597 12.8776 14.5477 12.5817 14.4056L15.2272 3.36648L17.5966 3.0018L16.6494 6.9192C16.8522 6.82845 17.0564 6.75814 17.2603 6.70695C17.4644 6.65651 17.6834 6.63026 17.9175 6.63026ZM15.9301 13.131C16.2869 13.131 16.6231 13.0438 16.939 12.8726C17.2558 12.7013 17.5292 12.4699 17.7582 12.1817C17.9872 11.8922 18.1685 11.5661 18.3006 11.2018C18.4328 10.8375 18.4996 10.4575 18.4996 10.062C18.4996 9.57623 18.4179 9.1973 18.2549 8.92336C18.092 8.65055 17.7905 8.51331 17.3527 8.51331C17.2092 8.51331 17.0243 8.54049 16.7951 8.58906C16.5652 8.64062 16.3594 8.74768 16.1749 8.90874L15.1664 13.0689C15.2272 13.0796 15.281 13.0898 15.3269 13.0993C15.3718 13.1096 15.4214 13.1169 15.4709 13.122C15.5232 13.1278 15.5831 13.1308 15.6554 13.1308L15.9301 13.131Z" fill="white"/>
<path d="M23.4639 5.54596C23.718 5.73308 24.0044 5.82646 24.3203 5.82646C24.534 5.82646 24.7345 5.78765 24.9239 5.70571C25.1115 5.62452 25.2786 5.51615 25.4204 5.37984C25.5635 5.24259 25.6777 5.08115 25.764 4.89365C25.8509 4.70616 25.8941 4.50628 25.8941 4.29329C25.8941 3.90948 25.7663 3.62317 25.5121 3.43511C25.2571 3.24798 24.9722 3.15461 24.6565 3.15461C24.442 3.15461 24.2408 3.19492 24.0516 3.27555C23.8636 3.35748 23.698 3.46623 23.5551 3.60236C23.412 3.7396 23.2977 3.90104 23.2103 4.08854C23.1242 4.27641 23.0808 4.47553 23.0808 4.68778C23.0808 5.07365 23.2077 5.35996 23.4639 5.54596Z" fill="white"/>
<path d="M20.9559 14.7864H23.219L25.1457 6.79957H22.8671L20.9559 14.7864Z" fill="white"/>
<path d="M29.4994 4.44497L27.129 4.80966L25.6298 11.0959C25.5076 11.6123 25.4368 12.1026 25.4159 12.5691C25.3957 13.0344 25.468 13.4475 25.6298 13.8058C25.7938 14.1654 26.068 14.4495 26.4558 14.6574C26.8441 14.8639 27.3892 14.9676 28.0923 14.9676C28.5813 14.9676 29.0044 14.9282 29.3617 14.8464C29.7186 14.7658 30.0497 14.67 30.3556 14.5586L30.1868 12.8269C29.9523 12.9088 29.7206 12.9714 29.492 13.0164C29.2621 13.0622 29.0242 13.0853 28.7801 13.0853C28.4836 13.0853 28.2577 13.0442 28.0998 12.9626C27.9412 12.8824 27.8319 12.769 27.7711 12.6218C27.7099 12.475 27.6841 12.3006 27.6952 12.0975C27.705 11.8954 27.7402 11.6779 27.8021 11.445L28.4742 8.6513H30.9975L31.4559 6.7992H28.9173L29.4994 4.44497Z" fill="white"/>
<path d="M31.3562 11.5971C31.3562 10.9092 31.4684 10.2604 31.6925 9.65311C31.9162 9.04524 32.2385 8.51368 32.6567 8.0575C33.0733 7.60357 33.581 7.24394 34.1786 6.97995C34.7733 6.71745 35.4392 6.58508 36.173 6.58508C36.6324 6.58508 37.0426 6.6282 37.4036 6.71464C37.7661 6.80182 38.094 6.91451 38.3906 7.05588L37.6102 8.81837C37.4063 8.73624 37.1946 8.66387 36.9758 8.59824C36.7568 8.53131 36.4894 8.49906 36.1732 8.49906C35.4178 8.49906 34.8207 8.75762 34.3762 9.27305C33.9335 9.78886 33.7105 10.4832 33.7105 11.3541C33.7105 11.8703 33.8227 12.2876 34.0477 12.607C34.2716 12.9263 34.6853 13.0851 35.2859 13.0851C35.5823 13.0851 35.8683 13.0543 36.1422 12.9943C36.4183 12.9336 36.662 12.8571 36.8767 12.7667L37.0457 14.5734C36.7594 14.6837 36.4438 14.7832 36.0975 14.8704C35.7505 14.9546 35.3374 14.9983 34.8584 14.9983C34.2261 14.9983 33.6909 14.9064 33.2531 14.7255C32.8151 14.5417 32.4531 14.2978 32.168 13.9888C31.8814 13.6791 31.6757 13.3174 31.5484 12.9023C31.4212 12.4875 31.3562 12.0518 31.3562 11.5971Z" fill="white"/>
<path fill-rule="evenodd" clip-rule="evenodd" d="M41.4097 14.9983C40.8696 14.9983 40.4004 14.9166 40.0024 14.7547C39.6056 14.5929 39.2769 14.3659 39.0169 14.0715C38.7565 13.7786 38.5617 13.4316 38.4282 13.0316C38.2947 12.6319 38.2305 12.1892 38.2305 11.7041C38.2305 11.0957 38.3289 10.4875 38.5277 9.88092C38.7256 9.27305 39.0192 8.72687 39.4077 8.24143C39.7932 7.75525 40.2688 7.35776 40.8288 7.04782C41.3882 6.73995 42.0316 6.58508 42.7543 6.58508C43.2847 6.58508 43.7514 6.66701 44.1549 6.82882C44.5564 6.99026 44.8872 7.21919 45.1487 7.51207C45.4073 7.80644 45.6039 8.152 45.736 8.55249C45.8691 8.95149 45.9348 9.3953 45.9348 9.88073C45.9348 10.4873 45.8378 11.0955 45.6452 11.704C45.4525 12.3094 45.1664 12.8569 44.7888 13.3434C44.412 13.8289 43.9408 14.2262 43.3747 14.5348C42.8095 14.8434 42.154 14.9983 41.4097 14.9983ZM42.5408 8.49924C42.2053 8.49924 41.9087 8.59599 41.6548 8.78705C41.3999 8.98036 41.1858 9.22336 41.0132 9.51642C40.8388 9.81079 40.7095 10.1318 40.6221 10.4807C40.5354 10.8304 40.4929 11.161 40.4929 11.475C40.4929 11.9818 40.5752 12.3765 40.737 12.6606C40.9011 12.9431 41.1958 13.0853 41.6242 13.0853C41.9608 13.0853 42.2559 12.9893 42.5114 12.7961C42.7647 12.6043 42.979 12.3611 43.1529 12.0675C43.3262 11.7746 43.4567 11.4527 43.5441 11.1032C43.6296 10.7547 43.6732 10.4222 43.6732 10.1087C43.6732 9.60323 43.5913 9.20761 43.428 8.92393C43.2649 8.64137 42.9688 8.49924 42.5408 8.49924Z" fill="white"/>
<path d="M48.6449 5.54596C48.8986 5.73308 49.1848 5.82646 49.5005 5.82646C49.7153 5.82646 49.9162 5.78765 50.1058 5.70571C50.2938 5.62452 50.4588 5.51615 50.6023 5.37984C50.7449 5.24259 50.8598 5.08115 50.9454 4.89365C51.0309 4.70616 51.0766 4.50628 51.0766 4.29329C51.0766 3.90948 50.948 3.62317 50.6933 3.43511C50.4388 3.24798 50.153 3.15461 49.8366 3.15461C49.6228 3.15461 49.4216 3.19492 49.2335 3.27555C49.0459 3.35748 48.8788 3.46623 48.7366 3.60236C48.5935 3.7396 48.4785 3.90104 48.3922 4.08854C48.306 4.27641 48.262 4.47553 48.262 4.68778C48.262 5.07365 48.39 5.35996 48.6449 5.54596Z" fill="white"/>
<path d="M46.1359 14.7864H48.4009L50.3269 6.79957H48.0471L46.1359 14.7864Z" fill="white"/>
<path d="M52.5293 6.98789C52.321 7.05304 52.1295 7.11295 51.9579 7.16276L50.1067 14.7855H52.3857L53.8691 8.60574C54.1755 8.54499 54.4757 8.51349 54.7708 8.51349C55.0768 8.51349 55.3025 8.57181 55.4518 8.68787C55.5989 8.8058 55.6936 8.95805 55.7339 9.14405C55.776 9.3323 55.778 9.5498 55.742 9.79654C55.7063 10.0455 55.658 10.3004 55.5964 10.564L54.5875 14.7857H56.8655L57.9065 10.4732C58.2011 9.27923 58.1225 8.33724 57.6687 7.64894C57.2144 6.96063 56.3916 6.61545 55.198 6.61545C54.7919 6.61545 54.4264 6.63307 54.1057 6.66926C53.7849 6.7047 53.4932 6.75045 53.2347 6.80689C52.9734 6.86164 52.7387 6.92264 52.5293 6.98789Z" fill="white"/>
</svg>
