<svg width="1157" height="1157" viewBox="0 0 1157 1157" fill="none" xmlns="http://www.w3.org/2000/svg">
<g filter="url(#filter0_d_776_105587)">
<g style="mix-blend-mode:plus-lighter">
<path d="M38 404.249C38 394.582 45.8361 386.752 55.5033 386.752C65.1704 386.752 73 394.588 73 404.249C73 413.909 65.1639 421.745 55.5033 421.745C45.8427 421.745 38 413.909 38 404.249Z" fill="url(#paint0_radial_776_105587)" style="mix-blend-mode:color-dodge"/>
</g>
<g style="mix-blend-mode:plus-lighter">
<path d="M390.477 1097.4C390.477 1087.73 398.314 1079.9 407.977 1079.9C417.639 1079.9 425.477 1087.74 425.477 1097.4C425.477 1107.06 417.639 1114.9 407.977 1114.9C398.314 1114.9 390.477 1107.06 390.477 1097.4Z" fill="url(#paint1_radial_776_105587)" style="mix-blend-mode:color-dodge"/>
</g>
<g style="mix-blend-mode:plus-lighter">
<path d="M1007.86 251.869C1007.86 242.2 1015.7 234.369 1025.36 234.369C1035.02 234.369 1042.86 242.207 1042.86 251.869C1042.86 261.532 1035.02 269.369 1025.36 269.369C1015.7 269.369 1007.86 261.532 1007.86 251.869Z" fill="url(#paint2_radial_776_105587)" style="mix-blend-mode:color-dodge"/>
</g>
<g style="mix-blend-mode:plus-lighter">
<path d="M884.878 1018.64C884.878 1008.97 892.716 1001.14 902.378 1001.14C912.04 1001.14 919.878 1008.98 919.878 1018.64C919.878 1028.3 912.04 1036.14 902.378 1036.14C892.716 1036.14 884.878 1028.3 884.878 1018.64Z" fill="url(#paint3_radial_776_105587)" style="mix-blend-mode:color-dodge"/>
</g>
<g style="mix-blend-mode:plus-lighter">
<path d="M237.086 1018.64C237.086 1008.97 244.924 1001.14 254.586 1001.14C264.248 1001.14 272.086 1008.98 272.086 1018.64C272.086 1028.3 264.248 1036.14 254.586 1036.14C244.924 1036.14 237.086 1028.3 237.086 1018.64Z" fill="url(#paint4_radial_776_105587)" style="mix-blend-mode:color-dodge"/>
</g>
<g style="mix-blend-mode:plus-lighter">
<path d="M10 575.252C10 565.583 17.8376 557.752 27.5 557.752C37.1624 557.752 45 565.59 45 575.252C45 584.914 37.1624 592.752 27.5 592.752C17.8376 592.752 10 584.914 10 575.252Z" fill="url(#paint5_radial_776_105587)" style="mix-blend-mode:color-dodge"/>
</g>
<g style="mix-blend-mode:plus-lighter">
<path d="M388.479 51.1201C388.479 41.4511 396.316 33.6201 405.979 33.6201C415.641 33.6201 423.479 41.4577 423.479 51.1201C423.479 60.7825 415.641 68.6201 405.979 68.6201C396.316 68.6201 388.479 60.7825 388.479 51.1201Z" fill="url(#paint6_radial_776_105587)" style="mix-blend-mode:color-dodge"/>
</g>
<g style="mix-blend-mode:plus-lighter">
<path d="M733.488 1097.4C733.488 1087.73 741.326 1079.9 750.988 1079.9C760.651 1079.9 768.488 1087.74 768.488 1097.4C768.488 1107.06 760.651 1114.9 750.988 1114.9C741.326 1114.9 733.488 1107.06 733.488 1097.4Z" fill="url(#paint7_radial_776_105587)" style="mix-blend-mode:color-dodge"/>
</g>
<g style="mix-blend-mode:plus-lighter">
<path d="M1111.25 574.26C1111.25 564.591 1119.09 556.76 1128.75 556.76C1138.41 556.76 1146.25 564.597 1146.25 574.26C1146.25 583.922 1138.41 591.76 1128.75 591.76C1119.09 591.76 1111.25 583.922 1111.25 574.26Z" fill="url(#paint8_radial_776_105587)" style="mix-blend-mode:color-dodge"/>
</g>
<g style="mix-blend-mode:plus-lighter">
<path d="M561.488 23.5C561.488 13.831 569.326 6 578.988 6C588.651 6 596.488 13.8376 596.488 23.5C596.488 33.1624 588.651 41 578.988 41C569.326 41 561.488 33.1624 561.488 23.5Z" fill="url(#paint9_radial_776_105587)" style="mix-blend-mode:color-dodge"/>
</g>
<g style="mix-blend-mode:plus-lighter">
<path d="M114 253.252C114 243.583 121.838 235.752 131.5 235.752C141.162 235.752 149 243.59 149 253.252C149 262.914 141.162 270.752 131.5 270.752C121.838 270.752 114 262.914 114 253.252Z" fill="url(#paint10_radial_776_105587)" style="mix-blend-mode:color-dodge"/>
</g>
<g style="mix-blend-mode:plus-lighter">
<path d="M237.086 130.89C237.086 121.221 244.924 113.39 254.586 113.39C264.248 113.39 272.086 121.227 272.086 130.89C272.086 140.552 264.248 148.39 254.586 148.39C244.924 148.39 237.086 140.552 237.086 130.89Z" fill="url(#paint11_radial_776_105587)" style="mix-blend-mode:color-dodge"/>
</g>
<g style="mix-blend-mode:plus-lighter">
<path d="M732.488 52.1201C732.488 42.4511 740.326 34.6201 749.988 34.6201C759.651 34.6201 767.488 42.4577 767.488 52.1201C767.488 61.7825 759.651 69.6201 749.988 69.6201C740.326 69.6201 732.488 61.7825 732.488 52.1201Z" fill="url(#paint12_radial_776_105587)" style="mix-blend-mode:color-dodge"/>
</g>
<g style="mix-blend-mode:plus-lighter">
<path d="M884 128.5C884 118.831 891.838 111 901.5 111C911.162 111 919 118.838 919 128.5C919 138.162 911.162 146 901.5 146C891.838 146 884 138.162 884 128.5Z" fill="url(#paint13_radial_776_105587)" style="mix-blend-mode:color-dodge"/>
</g>
<g style="mix-blend-mode:plus-lighter">
<path d="M1086.16 408.333C1086.16 398.664 1093.99 390.833 1103.66 390.833C1113.32 390.833 1121.16 398.671 1121.16 408.333C1121.16 417.995 1113.32 425.833 1103.66 425.833C1093.99 425.833 1086.16 417.995 1086.16 408.333Z" fill="url(#paint14_radial_776_105587)" style="mix-blend-mode:color-dodge"/>
</g>
<g style="mix-blend-mode:plus-lighter">
<path d="M562.477 1125.02C562.477 1115.35 570.314 1107.52 579.977 1107.52C589.639 1107.52 597.477 1115.36 597.477 1125.02C597.477 1134.68 589.639 1142.52 579.977 1142.52C570.314 1142.52 562.477 1134.68 562.477 1125.02Z" fill="url(#paint15_radial_776_105587)" style="mix-blend-mode:color-dodge"/>
</g>
<g style="mix-blend-mode:plus-lighter">
<path d="M116.109 897.65C116.109 887.981 123.947 880.15 133.609 880.15C143.272 880.15 151.109 887.988 151.109 897.65C151.109 907.313 143.272 915.15 133.609 915.15C123.947 915.15 116.109 907.313 116.109 897.65Z" fill="url(#paint16_radial_776_105587)" style="mix-blend-mode:color-dodge"/>
</g>
<g style="mix-blend-mode:plus-lighter">
<path d="M40 762.252C40 752.583 47.8376 744.752 57.5 744.752C67.1624 744.752 75 752.59 75 762.252C75 771.914 67.1624 779.752 57.5 779.752C47.8376 779.752 40 771.914 40 762.252Z" fill="url(#paint17_radial_776_105587)" style="mix-blend-mode:color-dodge"/>
</g>
<g style="mix-blend-mode:plus-lighter">
<path d="M1084.63 742.27C1084.63 732.601 1092.47 724.77 1102.13 724.77C1111.79 724.77 1119.63 732.607 1119.63 742.27C1119.63 751.932 1111.79 759.769 1102.13 759.769C1092.47 759.769 1084.63 751.932 1084.63 742.27Z" fill="url(#paint18_radial_776_105587)" style="mix-blend-mode:color-dodge"/>
</g>
<g style="mix-blend-mode:plus-lighter">
<path d="M1005.86 896.649C1005.86 886.98 1013.7 879.149 1023.36 879.149C1033.02 879.149 1040.86 886.987 1040.86 896.649C1040.86 906.312 1033.02 914.149 1023.36 914.149C1013.7 914.149 1005.86 906.312 1005.86 896.649Z" fill="url(#paint19_radial_776_105587)" style="mix-blend-mode:color-dodge"/>
</g>
</g>
<defs>
<filter id="filter0_d_776_105587" x="0" y="0" width="1156.25" height="1156.52" filterUnits="userSpaceOnUse" color-interpolation-filters="sRGB">
<feFlood flood-opacity="0" result="BackgroundImageFix"/>
<feColorMatrix in="SourceAlpha" type="matrix" values="0 0 0 0 0 0 0 0 0 0 0 0 0 0 0 0 0 0 127 0" result="hardAlpha"/>
<feOffset dy="4"/>
<feGaussianBlur stdDeviation="5"/>
<feComposite in2="hardAlpha" operator="out"/>
<feColorMatrix type="matrix" values="0 0 0 0 0 0 0 0 0 0 0 0 0 0 0 0 0 0 0.5 0"/>
<feBlend mode="normal" in2="BackgroundImageFix" result="effect1_dropShadow_776_105587"/>
<feBlend mode="normal" in="SourceGraphic" in2="effect1_dropShadow_776_105587" result="shape"/>
</filter>
<radialGradient id="paint0_radial_776_105587" cx="0" cy="0" r="1" gradientUnits="userSpaceOnUse" gradientTransform="translate(55.5 404.249) rotate(180) scale(17.5 17.4967)">
<stop stop-color="#F1E1DB"/>
<stop offset="0.785" stop-color="#F0E4D7"/>
<stop offset="1" stop-color="white" stop-opacity="0"/>
</radialGradient>
<radialGradient id="paint1_radial_776_105587" cx="0" cy="0" r="1" gradientUnits="userSpaceOnUse" gradientTransform="translate(407.977 1097.4) rotate(180) scale(17.5 17.5)">
<stop stop-color="#F1E1DB"/>
<stop offset="0.785" stop-color="#F0E4D7"/>
<stop offset="1" stop-color="white" stop-opacity="0"/>
</radialGradient>
<radialGradient id="paint2_radial_776_105587" cx="0" cy="0" r="1" gradientUnits="userSpaceOnUse" gradientTransform="translate(1025.36 251.869) rotate(180) scale(17.5 17.5)">
<stop stop-color="#F1E1DB"/>
<stop offset="0.785" stop-color="#F0E4D7"/>
<stop offset="1" stop-color="white" stop-opacity="0"/>
</radialGradient>
<radialGradient id="paint3_radial_776_105587" cx="0" cy="0" r="1" gradientUnits="userSpaceOnUse" gradientTransform="translate(902.378 1018.64) rotate(180) scale(17.5 17.5)">
<stop stop-color="#F1E1DB"/>
<stop offset="0.785" stop-color="#F0E4D7"/>
<stop offset="1" stop-color="white" stop-opacity="0"/>
</radialGradient>
<radialGradient id="paint4_radial_776_105587" cx="0" cy="0" r="1" gradientUnits="userSpaceOnUse" gradientTransform="translate(254.586 1018.64) rotate(180) scale(17.5 17.5)">
<stop stop-color="#F1E1DB"/>
<stop offset="0.785" stop-color="#F0E4D7"/>
<stop offset="1" stop-color="white" stop-opacity="0"/>
</radialGradient>
<radialGradient id="paint5_radial_776_105587" cx="0" cy="0" r="1" gradientUnits="userSpaceOnUse" gradientTransform="translate(27.5 575.252) rotate(180) scale(17.5 17.5)">
<stop stop-color="#F1E1DB"/>
<stop offset="0.785" stop-color="#F0E4D7"/>
<stop offset="1" stop-color="white" stop-opacity="0"/>
</radialGradient>
<radialGradient id="paint6_radial_776_105587" cx="0" cy="0" r="1" gradientUnits="userSpaceOnUse" gradientTransform="translate(405.979 51.1201) rotate(180) scale(17.5 17.5)">
<stop stop-color="#F1E1DB"/>
<stop offset="0.785" stop-color="#F0E4D7"/>
<stop offset="1" stop-color="white" stop-opacity="0"/>
</radialGradient>
<radialGradient id="paint7_radial_776_105587" cx="0" cy="0" r="1" gradientUnits="userSpaceOnUse" gradientTransform="translate(750.988 1097.4) rotate(180) scale(17.5 17.5)">
<stop stop-color="#F1E1DB"/>
<stop offset="0.785" stop-color="#F0E4D7"/>
<stop offset="1" stop-color="white" stop-opacity="0"/>
</radialGradient>
<radialGradient id="paint8_radial_776_105587" cx="0" cy="0" r="1" gradientUnits="userSpaceOnUse" gradientTransform="translate(1128.75 574.26) rotate(180) scale(17.5 17.5)">
<stop stop-color="#F1E1DB"/>
<stop offset="0.785" stop-color="#F0E4D7"/>
<stop offset="1" stop-color="white" stop-opacity="0"/>
</radialGradient>
<radialGradient id="paint9_radial_776_105587" cx="0" cy="0" r="1" gradientUnits="userSpaceOnUse" gradientTransform="translate(578.988 23.5) rotate(180) scale(17.5 17.5)">
<stop stop-color="#F1E1DB"/>
<stop offset="0.785" stop-color="#F0E4D7"/>
<stop offset="1" stop-color="white" stop-opacity="0"/>
</radialGradient>
<radialGradient id="paint10_radial_776_105587" cx="0" cy="0" r="1" gradientUnits="userSpaceOnUse" gradientTransform="translate(131.5 253.252) rotate(180) scale(17.5 17.5)">
<stop stop-color="#F1E1DB"/>
<stop offset="0.785" stop-color="#F0E4D7"/>
<stop offset="1" stop-color="white" stop-opacity="0"/>
</radialGradient>
<radialGradient id="paint11_radial_776_105587" cx="0" cy="0" r="1" gradientUnits="userSpaceOnUse" gradientTransform="translate(254.586 130.89) rotate(180) scale(17.5)">
<stop stop-color="#F1E1DB"/>
<stop offset="0.785" stop-color="#F0E4D7"/>
<stop offset="1" stop-color="white" stop-opacity="0"/>
</radialGradient>
<radialGradient id="paint12_radial_776_105587" cx="0" cy="0" r="1" gradientUnits="userSpaceOnUse" gradientTransform="translate(749.988 52.1201) rotate(180) scale(17.5 17.5)">
<stop stop-color="#F1E1DB"/>
<stop offset="0.785" stop-color="#F0E4D7"/>
<stop offset="1" stop-color="white" stop-opacity="0"/>
</radialGradient>
<radialGradient id="paint13_radial_776_105587" cx="0" cy="0" r="1" gradientUnits="userSpaceOnUse" gradientTransform="translate(901.5 128.5) rotate(180) scale(17.5 17.5)">
<stop stop-color="#F1E1DB"/>
<stop offset="0.785" stop-color="#F0E4D7"/>
<stop offset="1" stop-color="white" stop-opacity="0"/>
</radialGradient>
<radialGradient id="paint14_radial_776_105587" cx="0" cy="0" r="1" gradientUnits="userSpaceOnUse" gradientTransform="translate(1103.66 408.333) rotate(180) scale(17.5 17.5)">
<stop stop-color="#F1E1DB"/>
<stop offset="0.785" stop-color="#F0E4D7"/>
<stop offset="1" stop-color="white" stop-opacity="0"/>
</radialGradient>
<radialGradient id="paint15_radial_776_105587" cx="0" cy="0" r="1" gradientUnits="userSpaceOnUse" gradientTransform="translate(579.977 1125.02) rotate(180) scale(17.5 17.5)">
<stop stop-color="#F1E1DB"/>
<stop offset="0.785" stop-color="#F0E4D7"/>
<stop offset="1" stop-color="white" stop-opacity="0"/>
</radialGradient>
<radialGradient id="paint16_radial_776_105587" cx="0" cy="0" r="1" gradientUnits="userSpaceOnUse" gradientTransform="translate(133.609 897.65) rotate(180) scale(17.5)">
<stop stop-color="#F1E1DB"/>
<stop offset="0.785" stop-color="#F0E4D7"/>
<stop offset="1" stop-color="white" stop-opacity="0"/>
</radialGradient>
<radialGradient id="paint17_radial_776_105587" cx="0" cy="0" r="1" gradientUnits="userSpaceOnUse" gradientTransform="translate(57.5 762.252) rotate(180) scale(17.5)">
<stop stop-color="#F1E1DB"/>
<stop offset="0.785" stop-color="#F0E4D7"/>
<stop offset="1" stop-color="white" stop-opacity="0"/>
</radialGradient>
<radialGradient id="paint18_radial_776_105587" cx="0" cy="0" r="1" gradientUnits="userSpaceOnUse" gradientTransform="translate(1102.13 742.27) rotate(180) scale(17.5 17.5)">
<stop stop-color="#F1E1DB"/>
<stop offset="0.785" stop-color="#F0E4D7"/>
<stop offset="1" stop-color="white" stop-opacity="0"/>
</radialGradient>
<radialGradient id="paint19_radial_776_105587" cx="0" cy="0" r="1" gradientUnits="userSpaceOnUse" gradientTransform="translate(1023.36 896.649) rotate(180) scale(17.5 17.5)">
<stop stop-color="#F1E1DB"/>
<stop offset="0.785" stop-color="#F0E4D7"/>
<stop offset="1" stop-color="white" stop-opacity="0"/>
</radialGradient>
</defs>
</svg>
