<svg width="21" height="20" viewBox="0 0 21 20" fill="none" xmlns="http://www.w3.org/2000/svg">
<path d="M10.9871 14.3095C11.9857 14.9973 13.1958 15.4 14.5 15.4C17.9242 15.4 20.7 12.6242 20.7 9.2C20.7 5.77583 17.9242 3 14.5 3C13.1958 3 11.9857 3.40269 10.9871 4.09051C12.4051 5.33674 13.3 7.16386 13.3 9.2C13.3 11.2361 12.4051 13.0633 10.9871 14.3095Z" fill="#ffffff"/>
<path d="M10.5 4.46274C11.8455 5.60004 12.7 7.30024 12.7 9.2C12.7 11.0998 11.8455 12.8 10.5 13.9373C9.15443 12.8 8.29999 11.0998 8.29999 9.2C8.29999 7.30024 9.15443 5.60004 10.5 4.46274Z" fill="#ffffff"/>
<path d="M10.0129 4.09051C8.5949 5.33674 7.69999 7.16386 7.69999 9.2C7.69999 11.2361 8.5949 13.0633 10.0129 14.3095C9.01432 14.9973 7.80418 15.4 6.49999 15.4C3.07582 15.4 0.299988 12.6242 0.299988 9.2C0.299988 5.77583 3.07582 3 6.49999 3C7.80418 3 9.01432 3.40269 10.0129 4.09051Z" fill="#ffffff"/>
<path d="M13.2294 17.8649H13.8268V17.5225H13.2294V17H12.8594V17.5225H12.5175V17.8649H12.8594V18.6486C12.8594 19.0486 13.0109 19.2865 13.4444 19.2865C13.6064 19.287 13.7652 19.2408 13.9026 19.1532L13.7969 18.8324C13.6986 18.8924 13.587 18.9259 13.4726 18.9297C13.2894 18.9297 13.2294 18.8216 13.2294 18.6414V17.8649Z" fill="#ffffff"/>
<path fill-rule="evenodd" clip-rule="evenodd" d="M16.3626 17.4829C16.4833 17.4826 16.6029 17.5058 16.715 17.5514C16.8221 17.5952 16.9197 17.6601 17.0023 17.7423C17.0838 17.8239 17.1485 17.9213 17.1926 18.0288C17.2847 18.2598 17.2847 18.5185 17.1926 18.7495C17.1486 18.8571 17.0839 18.9545 17.0023 19.036C16.9197 19.1183 16.8221 19.1832 16.715 19.227C16.4827 19.3193 16.2249 19.3193 15.9926 19.227C15.886 19.1832 15.789 19.1183 15.7071 19.036C15.6263 18.9542 15.5622 18.8568 15.5185 18.7495C15.4266 18.5185 15.4266 18.2599 15.5185 18.0288C15.5622 17.9215 15.6263 17.8242 15.7071 17.7423C15.789 17.66 15.886 17.5951 15.9926 17.5514C16.1087 17.5021 16.2333 17.477 16.3591 17.4775L16.3626 17.4829ZM16.1529 17.8829C16.2196 17.8557 16.2908 17.8422 16.3626 17.8432L16.3591 17.8324C16.4322 17.8346 16.5041 17.8518 16.5706 17.8829C16.6364 17.9078 16.6964 17.9464 16.7468 17.9964C16.7955 18.048 16.8333 18.1094 16.8578 18.1766C16.9116 18.3204 16.9116 18.4796 16.8578 18.6234C16.8333 18.6906 16.7955 18.752 16.7468 18.8036C16.6964 18.8536 16.6364 18.8922 16.5706 18.9171C16.4363 18.9709 16.2872 18.9709 16.1529 18.9171C16.0901 18.8914 16.0331 18.8528 15.9855 18.8036C15.9369 18.7519 15.8991 18.6906 15.8745 18.6234C15.8207 18.4796 15.8207 18.3204 15.8745 18.1766C15.8991 18.1094 15.9369 18.0481 15.9855 17.9964C16.0331 17.9473 16.0901 17.9086 16.1529 17.8829Z" fill="#ffffff"/>
<path d="M6.4697 19.2432V18.1622C6.48217 17.9787 6.41682 17.7986 6.29032 17.6679C6.16382 17.5372 5.98842 17.4685 5.80888 17.4793C5.57166 17.4634 5.34478 17.5808 5.21679 17.7856C5.10009 17.5869 4.88642 17.4693 4.65993 17.4793C4.46273 17.4691 4.275 17.5664 4.16652 17.7351V17.5225H3.79999V19.2432H4.17005V18.2901C4.15344 18.1707 4.19017 18.05 4.27009 17.9613C4.35 17.8726 4.46466 17.8253 4.5824 17.8324C4.82558 17.8324 4.94893 17.9946 4.94893 18.2865V19.2432H5.31899V18.2901C5.30371 18.171 5.34089 18.051 5.42051 17.9627C5.50013 17.8743 5.61398 17.8266 5.73134 17.8324C5.98157 17.8324 6.1014 17.9946 6.1014 18.2865V19.2432H6.4697Z" fill="#ffffff"/>
<path fill-rule="evenodd" clip-rule="evenodd" d="M8.53146 18.3838V17.5243H8.1614V17.7333C8.03531 17.567 7.83845 17.473 7.63274 17.4811C7.14613 17.4811 6.75165 17.8844 6.75165 18.382C6.75165 18.8795 7.14613 19.2829 7.63274 19.2829C7.83845 19.2909 8.03531 19.197 8.1614 19.0306V19.2396H8.52793L8.53146 18.3838ZM7.69678 17.8941C7.41995 17.8834 7.18559 18.101 7.16929 18.3838H7.16576C7.1558 18.5285 7.20595 18.6708 7.30389 18.7757C7.40183 18.8807 7.53849 18.9385 7.68032 18.9351C7.95734 18.9337 8.18241 18.7061 8.18688 18.4228C8.19136 18.1396 7.97361 17.9047 7.69678 17.8941Z" fill="#ffffff"/>
<path fill-rule="evenodd" clip-rule="evenodd" d="M10.5227 18.3838C10.5227 17.8432 10.195 17.4829 9.72446 17.4829C9.23784 17.4898 8.84889 17.8988 8.8557 18.3964C8.86251 18.894 9.26251 19.2917 9.74913 19.2847C10 19.2934 10.2453 19.2075 10.4381 19.0432L10.2619 18.7658C10.1228 18.8799 9.95039 18.9433 9.77204 18.9459C9.52011 18.9681 9.2967 18.7812 9.26805 18.5243H10.5174C10.5227 18.4793 10.5227 18.4342 10.5227 18.3838ZM9.71212 17.8162C9.47927 17.8109 9.28396 17.9947 9.26981 18.2324L10.1386 18.2342C10.1363 18.121 10.09 18.0133 10.01 17.9349C9.93006 17.8565 9.82289 17.8138 9.71212 17.8162Z" fill="#ffffff"/>
<path d="M12.0646 17.9622C11.9037 17.8674 11.7217 17.8165 11.536 17.8144C11.3351 17.8144 11.2153 17.8901 11.2153 18.0162C11.2153 18.1423 11.3421 18.164 11.5007 18.1856L11.677 18.2108C12.0435 18.2649 12.2655 18.4234 12.2655 18.7261C12.2655 19.0288 11.9836 19.2883 11.499 19.2883C11.2393 19.2954 10.9842 19.217 10.7712 19.0649L10.9474 18.773C11.1091 18.8956 11.3065 18.9591 11.5078 18.9532C11.758 18.9532 11.8919 18.8775 11.8919 18.7441C11.8919 18.6468 11.7968 18.5928 11.5959 18.564L11.4197 18.5387C11.0426 18.4847 10.8382 18.3117 10.8382 18.0306C10.8382 17.6883 11.1131 17.4793 11.543 17.4793C11.7837 17.471 12.0216 17.5336 12.2285 17.6595L12.0646 17.9622Z" fill="#ffffff"/>
<path d="M15.0938 17.4793C15.1827 17.4796 15.2709 17.4955 15.3546 17.5261L15.2419 17.8865C15.169 17.8568 15.0912 17.8421 15.0128 17.8432C14.7731 17.8432 14.6603 18.0018 14.6603 18.2865V19.2505H14.2938V17.5297H14.6568V17.7387C14.7484 17.5778 14.9188 17.481 15.1009 17.4865L15.0938 17.4793Z" fill="#ffffff"/>
<path fill-rule="evenodd" clip-rule="evenodd" d="M17.6843 19.0973C17.6711 19.0872 17.6549 19.0821 17.6384 19.0829L17.5644 19.0775V19.2432H17.5979V19.1838H17.6138L17.6613 19.2432H17.7019L17.6508 19.1838C17.6645 19.1828 17.6776 19.1771 17.6878 19.1676C17.6961 19.159 17.7006 19.1472 17.7001 19.1351C17.7011 19.1206 17.6952 19.1066 17.6843 19.0973ZM17.5997 19.1135V19.1568H17.6384C17.6453 19.1589 17.6527 19.1589 17.6596 19.1568C17.6621 19.1517 17.6621 19.1456 17.6596 19.1405C17.6621 19.1354 17.6621 19.1294 17.6596 19.1243C17.6527 19.1222 17.6453 19.1222 17.6384 19.1243L17.5997 19.1135Z" fill="#ffffff"/>
<path fill-rule="evenodd" clip-rule="evenodd" d="M17.6948 19.0054C17.6735 18.9968 17.6508 18.9925 17.6279 18.9928H17.6191C17.5991 18.9936 17.5794 18.9979 17.5609 19.0054C17.5407 19.0138 17.5221 19.0261 17.5063 19.0414C17.4908 19.057 17.4782 19.0753 17.4693 19.0955C17.4514 19.1381 17.4514 19.1863 17.4693 19.2288C17.4979 19.2921 17.5597 19.3328 17.6279 19.3333C17.6509 19.3333 17.6737 19.3284 17.6948 19.3189C17.7151 19.3105 17.7336 19.2983 17.7495 19.2829C17.7649 19.2673 17.7775 19.249 17.7865 19.2288C17.8045 19.1863 17.8045 19.138 17.7865 19.0955C17.7775 19.0753 17.7649 19.057 17.7495 19.0414C17.7336 19.0261 17.7151 19.0138 17.6948 19.0054ZM17.6279 19.2973C17.6455 19.2974 17.6629 19.2937 17.679 19.2865C17.6941 19.2796 17.7079 19.2698 17.7195 19.2577C17.7498 19.2264 17.7631 19.1819 17.755 19.1386C17.7469 19.0954 17.7185 19.059 17.679 19.0414C17.6628 19.0343 17.6454 19.0306 17.6279 19.0306C17.6103 19.0307 17.5929 19.0344 17.5768 19.0414C17.5609 19.0481 17.5465 19.0579 17.5345 19.0703C17.4888 19.1212 17.4888 19.1995 17.5345 19.2505C17.5591 19.276 17.5928 19.2903 17.6279 19.2901V19.2973Z" fill="#ffffff"/>
</svg>
