<?xml version="1.0" encoding="utf-8"?>
<!-- Generator: Adobe Illustrator 19.2.0, SVG Export Plug-In . SVG Version: 6.00 Build 0)  -->
<svg version="1.1" xmlns="http://www.w3.org/2000/svg" xmlns:xlink="http://www.w3.org/1999/xlink" x="0px" y="0px"
	 viewBox="0 0 131.7 131.7" style="enable-background:new 0 0 131.7 131.7;" xml:space="preserve">
<style type="text/css">
	.st0{display:none;fill:#FFFFFF;}
	.st1{fill:#FFFFFF;}
	.st2{fill:#CB2129;}
	.st3{fill:#0E2344;}
	.st4{display:none;}
	.st5{display:inline;fill:#29ABE2;}
</style>
<g id="Layer_2">
	<rect x="0.1" y="0.1" class="st0" width="131.7" height="131.7"/>
	<g>
		<path class="st1" d="M24.7,131.7C11.1,131.7,0,120.6,0,107V24.6C0,11.1,11.1,0,24.7,0H107c13.6,0,24.7,11.1,24.7,24.6V107
			c0,13.6-11.1,24.6-24.7,24.6H24.7z"/>
		<g>
			<path class="st2" d="M29.6,20.4h26.2l10.1,39.2l10-39.2h26.2v64.5H85.8V35.7L73.3,84.8H58.5L45.9,35.7v49.2H29.6V20.4z"/>
			<g>
				<path class="st3" d="M29.7,91h11.8c2,0,3.5,0.5,4.5,1.5c1.1,1,1.6,2.2,1.6,3.6c0,1.2-0.4,2.2-1.1,3.1c-0.5,0.6-1.2,1-2.2,1.4
					c1.5,0.4,2.5,1,3.2,1.8c0.7,0.9,1,1.9,1,3.2c0,1.1-0.2,2-0.7,2.8c-0.5,0.8-1.2,1.5-2,2c-0.5,0.3-1.3,0.5-2.4,0.7
					c-1.4,0.2-2.4,0.3-2.8,0.3H29.7V91z M36,99h2.7c1,0,1.7-0.2,2-0.5c0.4-0.3,0.6-0.8,0.6-1.5c0-0.6-0.2-1.1-0.6-1.4
					c-0.4-0.3-1.1-0.5-2-0.5H36V99z M36,107h3.2c1.1,0,1.8-0.2,2.3-0.6s0.7-0.9,0.7-1.5c0-0.6-0.2-1.1-0.7-1.5
					c-0.4-0.4-1.2-0.5-2.3-0.5H36V107z"/>
				<path class="st3" d="M57.2,91h16.9v4.3H63.6v3.2h9.8v4.2h-9.8v4h10.9v4.6H57.2V91z"/>
				<path class="st3" d="M83,91h19.1v5h-6.4v15.3h-6.3V96H83V91z"/>
			</g>
		</g>
	</g>
</g>
<g id="Exclusion" class="st4">
	<path class="st5" d="M56.5,111.4h11.8c2,0,3.5,0.5,4.5,1.5c1.1,1,1.6,2.2,1.6,3.6c0,1.2-0.4,2.2-1.1,3.1c-0.5,0.6-1.2,1-2.2,1.4
		c1.5,0.4,2.5,1,3.2,1.8c0.7,0.9,1,1.9,1,3.2c0,1.1-0.2,2-0.7,2.8c-0.5,0.8-1.2,1.5-2,2c-0.5,0.3-1.3,0.5-2.4,0.7
		c-1.4,0.2-2.4,0.3-2.8,0.3H56.5V111.4z M62.8,119.3h2.7c1,0,1.7-0.2,2-0.5c0.4-0.3,0.6-0.8,0.6-1.5c0-0.6-0.2-1.1-0.6-1.4
		c-0.4-0.3-1.1-0.5-2-0.5h-2.8V119.3z M62.8,127.3H66c1.1,0,1.8-0.2,2.3-0.6s0.7-0.9,0.7-1.5c0-0.6-0.2-1.1-0.7-1.5
		c-0.4-0.4-1.2-0.5-2.3-0.5h-3.2V127.3z"/>
	<path class="st5" d="M56.5,0h11.8c2,0,3.5,0.5,4.5,1.5c1.1,1,1.6,2.2,1.6,3.6c0,1.2-0.4,2.2-1.1,3.1c-0.5,0.6-1.2,1-2.2,1.4
		c1.5,0.4,2.5,1,3.2,1.8c0.7,0.9,1,1.9,1,3.2c0,1.1-0.2,2-0.7,2.8c-0.5,0.8-1.2,1.5-2,2c-0.5,0.3-1.3,0.5-2.4,0.7
		c-1.4,0.2-2.4,0.3-2.8,0.3H56.5V0z M62.8,8h2.7c1,0,1.7-0.2,2-0.5C68,7.1,68.2,6.7,68.2,6c0-0.6-0.2-1.1-0.6-1.4
		c-0.4-0.3-1.1-0.5-2-0.5h-2.8V8z M62.8,16H66c1.1,0,1.8-0.2,2.3-0.6c0.4-0.4,0.7-0.9,0.7-1.5c0-0.6-0.2-1.1-0.7-1.5
		c-0.4-0.4-1.2-0.5-2.3-0.5h-3.2V16z"/>
	<path class="st5" d="M102.2,75.3V63.5c0-2,0.5-3.5,1.5-4.5c1-1.1,2.2-1.6,3.6-1.6c1.2,0,2.2,0.4,3.1,1.1c0.6,0.5,1,1.2,1.4,2.2
		c0.4-1.5,1-2.5,1.8-3.2c0.9-0.7,1.9-1,3.2-1c1.1,0,2,0.2,2.8,0.7c0.8,0.5,1.5,1.2,2,2c0.3,0.5,0.5,1.3,0.7,2.4
		c0.2,1.4,0.3,2.4,0.3,2.8v10.9H102.2z M110.2,69v-2.7c0-1-0.2-1.7-0.5-2c-0.3-0.4-0.8-0.6-1.5-0.6c-0.6,0-1.1,0.2-1.4,0.6
		c-0.3,0.4-0.5,1.1-0.5,2V69H110.2z M118.2,69v-3.2c0-1.1-0.2-1.8-0.6-2.3c-0.4-0.4-0.9-0.7-1.5-0.7c-0.6,0-1.1,0.2-1.5,0.7
		c-0.4,0.4-0.5,1.2-0.5,2.3V69H118.2z"/>
	<path class="st5" d="M9.3,75.2V63.4c0-2,0.5-3.5,1.5-4.5c1-1.1,2.2-1.6,3.6-1.6c1.2,0,2.2,0.4,3.1,1.1c0.6,0.5,1,1.2,1.4,2.2
		c0.4-1.5,1-2.5,1.8-3.2c0.9-0.7,1.9-1,3.2-1c1.1,0,2,0.2,2.8,0.7c0.8,0.5,1.5,1.2,2,2c0.3,0.5,0.5,1.3,0.7,2.4
		c0.2,1.4,0.3,2.4,0.3,2.8v10.9H9.3z M17.3,68.9v-2.7c0-1-0.2-1.7-0.5-2c-0.3-0.4-0.8-0.6-1.5-0.6c-0.6,0-1.1,0.2-1.4,0.6
		c-0.3,0.4-0.5,1.1-0.5,2v2.8H17.3z M25.3,68.9v-3.2c0-1.1-0.2-1.8-0.6-2.3c-0.4-0.4-0.9-0.7-1.5-0.7c-0.6,0-1.1,0.2-1.5,0.7
		c-0.4,0.4-0.5,1.2-0.5,2.3v3.2H25.3z"/>
</g>
</svg>
