<?xml version="1.0" encoding="utf-8"?>
<!-- Generator: Adobe Illustrator 24.0.1, SVG Export Plug-In . SVG Version: 6.00 Build 0)  -->
<svg version="1.1" id="Layer_1" xmlns="http://www.w3.org/2000/svg" xmlns:xlink="http://www.w3.org/1999/xlink" x="0px" y="0px"
	 viewBox="0 0 378.7 139.8" style="enable-background:new 0 0 378.7 139.8;" xml:space="preserve">
<style type="text/css">
	.st0{fill:none;}
	.st1{fill:#CB2129;}
	.st2{fill:#0E2344;}
	.st3{fill:#646469;}
</style>
<rect y="0" class="st0" width="378.7" height="139.8"/>
<g>
	<g>
		<g>
			<path class="st1" d="M35.1,35.1h14.2l5.5,21.3l5.5-21.3h14.2v35.1h-8.9V43.4l-6.8,26.7h-8L44,43.4v26.7h-8.9V35.1z"/>
			<path class="st1" d="M103,64.3H90.6l-1.7,5.8h-11L91.1,35h11.8l13.2,35.1h-11.3L103,64.3z M100.7,56.8l-3.9-12.6L93,56.8H100.7z"
				/>
			<path class="st1" d="M119.6,70.1v-35h18.1c3.3,0,5.9,0.3,7.7,0.9c1.8,0.6,3.2,1.6,4.3,3.2c1.1,1.6,1.6,3.4,1.6,5.7
				c0,1.9-0.4,3.6-1.2,5s-2,2.6-3.4,3.4c-0.9,0.6-2.2,1-3.8,1.4c1.3,0.4,2.2,0.9,2.8,1.3c0.4,0.3,1,0.9,1.7,1.8
				c0.8,0.9,1.3,1.7,1.5,2.2l5.2,10.2h-12.2l-5.8-10.7c-0.7-1.4-1.4-2.3-2-2.7c-0.8-0.5-1.7-0.8-2.7-0.8h-1v14.2h-10.8V70.1z
				 M130.5,49.3h4.6c0.5,0,1.5-0.2,2.9-0.5c0.7-0.1,1.3-0.5,1.8-1.1s0.7-1.3,0.7-2c0-1.1-0.4-2-1.1-2.6c-0.7-0.6-2.1-0.9-4-0.9h-4.8
				L130.5,49.3L130.5,49.3z"/>
			<path class="st1" d="M181.5,64.3h-12.3l-1.7,5.8h-11.1L169.6,35h11.8l13.2,35.1h-11.3L181.5,64.3z M179.3,56.8l-3.9-12.6
				l-3.8,12.6C171.6,56.8,179.3,56.8,179.3,56.8z"/>
			<path class="st1" d="M190.6,35.1h32.9v8.7h-11.1v26.4h-10.8V43.7h-11.1v-8.6H190.6z"/>
			<path class="st1" d="M228.5,35.1h10.8v12.3h11.8V35.1H262v35.1h-10.9V55.9h-11.8v14.2h-10.8V35.1z"/>
			<path class="st1" d="M267.8,52.6c0-5.7,1.6-10.2,4.8-13.4c3.2-3.2,7.6-4.8,13.3-4.8c5.8,0,10.3,1.6,13.5,4.7
				c3.2,3.1,4.7,7.5,4.7,13.2c0,4.1-0.7,7.5-2.1,10.1c-1.4,2.6-3.4,4.7-6,6.1c-2.6,1.5-5.9,2.2-9.7,2.2c-4,0-7.2-0.6-9.8-1.9
				c-2.6-1.3-4.7-3.3-6.3-6C268.7,60.1,267.8,56.7,267.8,52.6z M278.7,52.7c0,3.5,0.7,6.1,2,7.6s3.1,2.3,5.4,2.3s4.1-0.8,5.4-2.3
				s1.9-4.2,1.9-8.2c0-3.3-0.7-5.7-2-7.2s-3.1-2.3-5.4-2.3c-2.2,0-3.9,0.8-5.3,2.3C279.3,46.5,278.7,49.1,278.7,52.7z"/>
			<path class="st1" d="M310.1,35.1h10.1l13.2,19.4V35.1h10.2v35.1h-10.2l-13.1-19.3v19.3h-10.2V35.1z"/>
		</g>
		<g>
			<g>
				<path class="st2" d="M153.1,84.3H165c2,0,3.5,0.5,4.6,1.5s1.6,2.2,1.6,3.6c0,1.2-0.4,2.3-1.1,3.1c-0.5,0.6-1.2,1-2.2,1.4
					c1.5,0.4,2.6,1,3.3,1.8c0.7,0.9,1,1.9,1,3.3c0,1.1-0.2,2-0.7,2.9c-0.5,0.8-1.2,1.5-2,2c-0.5,0.3-1.3,0.5-2.4,0.7
					c-1.4,0.2-2.4,0.3-2.8,0.3h-10.9V84.3H153.1z M159.5,92.3h2.8c1,0,1.7-0.2,2.1-0.5c0.4-0.3,0.6-0.8,0.6-1.5
					c0-0.6-0.2-1.1-0.6-1.4c-0.4-0.3-1.1-0.5-2-0.5h-2.8v3.9H159.5z M159.5,100.4h3.2c1.1,0,1.9-0.2,2.3-0.6s0.7-0.9,0.7-1.6
					c0-0.6-0.2-1.1-0.7-1.5c-0.4-0.4-1.2-0.6-2.3-0.6h-3.2V100.4z"/>
				<path class="st2" d="M180.6,84.3h17v4.4H187V92h9.9v4.2H187v4h10.9v4.6h-17.3L180.6,84.3L180.6,84.3z"/>
				<path class="st2" d="M206.3,84.3h19.3v5.1h-6.5v15.4h-6.3V89.3h-6.5V84.3z"/>
			</g>
			<g>
				<path class="st3" d="M109.5,88.5l9.6,4.8c-2.8-4.9-7.6-7.9-14.5-7.6c2.3,4.7,6.7,8.1,13.6,8.2L109.5,88.5z"/>
				<path class="st3" d="M94.5,86.5l8.3,6.6c-1.6-5.3-5.7-9.3-12.5-10.3c1.2,5,5,9.6,11.8,11C102.1,93.9,94.5,86.5,94.5,86.5z"/>
				<path class="st3" d="M80.4,83.8l7.8,7.1c-1.3-5.4-5-9.6-11.8-11c0.8,5.1,4.5,10,11.2,11.8C87.6,91.7,80.4,83.8,80.4,83.8z"/>
				<path class="st3" d="M111.7,105.1l7.7-6.9c-1.2,5.4-4.9,9.5-11.6,10.8c0.7-5,3.9-9.8,10.6-11.5
					C118.5,97.4,111.7,105.1,111.7,105.1z"/>
				<path class="st3" d="M92.6,103.6l9.6-4.3c-2.9,4.7-7.8,7.5-14.6,6.8c2.4-4.5,7.2-8,14.1-7.7C101.8,98.4,92.6,103.6,92.6,103.6z"
					/>
				<path class="st3" d="M77.4,98l10.2-1.9c-3.5,3.9-8.8,5.3-15.4,3.3c2.9-3.8,8.4-5.9,15.1-4.3C87.3,95,77.4,98,77.4,98z"/>
				<path class="st3" d="M66.5,84.8l10,3.9c-3.2-4.6-8.4-7.2-15.2-6.2C64,87,69.1,90.4,76,89.8C76.1,89.8,66.5,84.8,66.5,84.8z"/>
				<path class="st3" d="M127.4,92.7l1.6,1.4c0,0-8.1,5.2-29.3,2.6C85.6,95,76.8,89.5,77,89.5c6.9,2.7,18.1,6.8,30.1,6.3
					C119.1,95.4,122.1,95,127.4,92.7z"/>
				<path class="st3" d="M269.2,88.5l-9.6,4.8c2.8-4.9,7.6-7.9,14.5-7.6c-2.3,4.7-6.7,8.1-13.6,8.2L269.2,88.5z"/>
				<path class="st3" d="M284.2,86.5l-8.3,6.6c1.6-5.3,5.7-9.3,12.5-10.3c-1.2,5-5,9.6-11.8,11C276.6,93.9,284.2,86.5,284.2,86.5z"
					/>
				<path class="st3" d="M298.3,83.8l-7.8,7.1c1.3-5.4,5-9.6,11.8-11c-0.8,5.1-4.5,10-11.2,11.8C291,91.7,298.3,83.8,298.3,83.8z"/>
				<path class="st3" d="M266.9,105.1l-7.7-6.9c1.2,5.4,4.9,9.5,11.6,10.8c-0.7-5-4-9.8-10.6-11.5
					C260.2,97.4,266.9,105.1,266.9,105.1z"/>
				<path class="st3" d="M286.1,103.6l-9.6-4.3c2.9,4.7,7.8,7.5,14.6,6.8c-2.4-4.5-7.2-8-14.1-7.7
					C276.9,98.4,286.1,103.6,286.1,103.6z"/>
				<path class="st3" d="M301.3,98l-10.2-1.9c3.5,3.9,8.8,5.3,15.4,3.3c-2.9-3.8-8.4-5.9-15.1-4.3C291.4,95,301.3,98,301.3,98z"/>
				<path class="st3" d="M312.2,84.8l-10,3.9c3.2-4.6,8.4-7.2,15.2-6.2c-2.7,4.5-7.8,7.9-14.7,7.3C302.6,89.8,312.2,84.8,312.2,84.8
					z"/>
				<path class="st3" d="M251.3,92.7l-1.6,1.4c0,0,8.1,5.2,29.3,2.6c14.1-1.7,22.9-7.2,22.7-7.2c-6.9,2.7-18.1,6.8-30.1,6.3
					C259.6,95.4,256.5,95,251.3,92.7z"/>
			</g>
		</g>
	</g>
</g>
</svg>
