<svg width="21" height="20" viewBox="0 0 21 20" fill="none" xmlns="http://www.w3.org/2000/svg">
<path d="M10.9871 14.3095C11.9857 14.9973 13.1958 15.4 14.5 15.4C17.9242 15.4 20.7 12.6242 20.7 9.2C20.7 5.77583 17.9242 3 14.5 3C13.1958 3 11.9857 3.40269 10.9871 4.09051C12.4051 5.33674 13.3 7.16386 13.3 9.2C13.3 11.2361 12.4051 13.0633 10.9871 14.3095Z" fill="#ffffff"/>
<path d="M10.5 4.46274C11.8455 5.60004 12.7 7.30024 12.7 9.2C12.7 11.0998 11.8455 12.8 10.5 13.9373C9.15443 12.8 8.29999 11.0998 8.29999 9.2C8.29999 7.30024 9.15443 5.60004 10.5 4.46274Z" fill="#ffffff"/>
<path d="M10.0129 4.09051C8.5949 5.33674 7.69999 7.16386 7.69999 9.2C7.69999 11.2361 8.5949 13.0633 10.0129 14.3095C9.01432 14.9973 7.80418 15.4 6.49999 15.4C3.07582 15.4 0.299988 12.6242 0.299988 9.2C0.299988 5.77583 3.07582 3 6.49999 3C7.80418 3 9.01432 3.40269 10.0129 4.09051Z" fill="#ffffff"/>
<path fill-rule="evenodd" clip-rule="evenodd" d="M19.62 17.0333V19.3723H19.2536V19.1629C19.1489 19.3199 18.9745 19.4072 18.7302 19.4072C18.2591 19.4072 17.8927 19.0407 17.8927 18.5345C17.8927 18.0283 18.2591 17.6617 18.7302 17.6617C18.957 17.6617 19.1315 17.749 19.2536 17.9061V17.0333H19.62ZM18.2766 18.5345C18.2766 18.2377 18.4685 17.9934 18.7825 17.9934C19.0791 17.9934 19.2885 18.2203 19.2885 18.5345C19.2885 18.8312 19.0791 19.0756 18.7825 19.0756C18.4685 19.0581 18.2766 18.8312 18.2766 18.5345Z" fill="#ffffff"/>
<path d="M9.3957 17.6966H8.80248V17.1904H8.43608V17.6966H8.10457V18.0283H8.43608V18.7963C8.43608 19.1803 8.59311 19.4072 9.01185 19.4072C9.16888 19.4072 9.34336 19.3549 9.46549 19.285L9.36081 18.9708C9.25612 19.0407 9.13399 19.0581 9.04675 19.0581C8.87227 19.0581 8.80248 18.9534 8.80248 18.7788V18.0283H9.3957V17.6966Z" fill="#ffffff"/>
<path d="M3.96948 19.3723V18.325C3.96948 17.9235 3.72521 17.6617 3.30647 17.6617C3.0971 17.6617 2.87028 17.7315 2.71325 17.9584C2.59111 17.7664 2.41664 17.6617 2.15492 17.6617C1.98045 17.6617 1.80597 17.7141 1.66639 17.9061V17.6966H1.29999V19.3723H1.66639V18.4472C1.66639 18.1504 1.82342 18.0108 2.06768 18.0108C2.31195 18.0108 2.43409 18.1679 2.43409 18.4472V19.3723H2.80049V18.4472C2.80049 18.1504 2.97496 18.0108 3.20178 18.0108C3.44605 18.0108 3.56818 18.1679 3.56818 18.4472V19.3723H3.96948Z" fill="#ffffff"/>
<path d="M12.0652 17.9061C12.1524 17.7664 12.292 17.6617 12.5014 17.6617C12.5712 17.6617 12.6759 17.6617 12.7457 17.6792L12.641 18.0283C12.5712 18.0108 12.4839 17.9934 12.4141 17.9934C12.1873 17.9934 12.0652 18.1504 12.0652 18.4297V19.3723H11.6988V17.6966H12.0652V17.9061Z" fill="#ffffff"/>
<path d="M7.80796 17.8363C7.63349 17.7141 7.38922 17.6617 7.12751 17.6617C6.70876 17.6617 6.4296 17.8712 6.4296 18.2028C6.4296 18.4821 6.63897 18.6392 7.00537 18.6916L7.17985 18.709C7.37177 18.7439 7.47646 18.7963 7.47646 18.8836C7.47646 19.0058 7.33688 19.093 7.09261 19.093C6.84834 19.093 6.65642 19.0058 6.53429 18.9185L6.35981 19.1978C6.55173 19.3374 6.81345 19.4072 7.07516 19.4072C7.5637 19.4072 7.84286 19.1803 7.84286 18.8661C7.84286 18.5694 7.61604 18.4123 7.26709 18.3599L7.09261 18.3425C6.93558 18.325 6.81345 18.2901 6.81345 18.1854C6.81345 18.0632 6.93558 17.9934 7.12751 17.9934C7.33688 17.9934 7.54625 18.0806 7.65094 18.133L7.80796 17.8363Z" fill="#ffffff"/>
<path d="M17.1076 17.9061C17.1948 17.7664 17.3344 17.6617 17.5438 17.6617C17.6135 17.6617 17.7182 17.6617 17.788 17.6792L17.6833 18.0283C17.6135 18.0108 17.5263 17.9934 17.4565 17.9934C17.2297 17.9934 17.1076 18.1504 17.1076 18.4297V19.3723H16.7412V17.6966H17.1076V17.9061Z" fill="#ffffff"/>
<path d="M12.8678 18.5345C12.8678 19.0407 13.2167 19.4072 13.7576 19.4072C14.0019 19.4072 14.1764 19.3549 14.3508 19.2152L14.1764 18.9185C14.0368 19.0232 13.8972 19.0756 13.7402 19.0756C13.4436 19.0756 13.2342 18.8661 13.2342 18.5345C13.2342 18.2203 13.4436 18.0108 13.7402 17.9934C13.8972 17.9934 14.0368 18.0457 14.1764 18.1504L14.3508 17.8537C14.1764 17.7141 14.0019 17.6617 13.7576 17.6617C13.2167 17.6617 12.8678 18.0283 12.8678 18.5345Z" fill="#ffffff"/>
<path fill-rule="evenodd" clip-rule="evenodd" d="M16.2526 17.6966V19.3723H15.8862V19.1629C15.7815 19.3199 15.6071 19.4072 15.3628 19.4072C14.8917 19.4072 14.5253 19.0407 14.5253 18.5345C14.5253 18.0283 14.8917 17.6617 15.3628 17.6617C15.5896 17.6617 15.7641 17.749 15.8862 17.9061V17.6966H16.2526ZM14.9092 18.5345C14.9092 18.2377 15.1011 17.9934 15.4151 17.9934C15.7118 17.9934 15.9211 18.2203 15.9211 18.5345C15.9211 18.8312 15.7118 19.0756 15.4151 19.0756C15.1011 19.0581 14.9092 18.8312 14.9092 18.5345Z" fill="#ffffff"/>
<path fill-rule="evenodd" clip-rule="evenodd" d="M9.69231 18.5345C9.69231 18.0108 10.0413 17.6617 10.5298 17.6617C11.0009 17.6617 11.3149 18.0108 11.2975 18.5519V18.6916H10.0587C10.1111 18.9883 10.3379 19.093 10.5647 19.093C10.7392 19.093 10.9136 19.0232 11.0532 18.9185L11.2277 19.1803C11.0358 19.3374 10.7915 19.4072 10.5472 19.4072C10.0413 19.4072 9.69231 19.0581 9.69231 18.5345ZM10.5298 17.9759C10.7566 17.9759 10.9136 18.1155 10.9485 18.3774H10.0762C10.1111 18.1504 10.2681 17.9759 10.5298 17.9759Z" fill="#ffffff"/>
<path fill-rule="evenodd" clip-rule="evenodd" d="M6.0283 17.6966V19.3723H5.6619V19.1629C5.55722 19.3199 5.38274 19.4072 5.13847 19.4072C4.66739 19.4072 4.30098 19.0407 4.30098 18.5345C4.30098 18.0283 4.66739 17.6617 5.13847 17.6617C5.36529 17.6617 5.53977 17.749 5.6619 17.9061V17.6966H6.0283ZM4.66739 18.5345C4.66739 18.2377 4.85931 17.9934 5.17337 17.9934C5.46998 17.9934 5.67935 18.2203 5.67935 18.5345C5.67935 18.8312 5.46998 19.0756 5.17337 19.0756C4.85931 19.0581 4.66739 18.8312 4.66739 18.5345Z" fill="#ffffff"/>
</svg>
