<svg width="57" height="20" viewBox="0 0 57 20" fill="none" xmlns="http://www.w3.org/2000/svg">
<path fill-rule="evenodd" clip-rule="evenodd" d="M55.6313 5.76012C54.9092 5.25491 53.8163 5.00012 52.3837 5.00012H48.632L47.2372 12.7327H42.3223L42.6382 10.9783H45.5988L45.9497 9.00789L42.9907 9.01224L43.3075 7.26572H46.3571L46.7628 5.00057H40.5697L39.2456 12.3354H36.9729L38.3059 5.00019H35.0686L33.7445 12.335H31.5305L32.8648 5.00019H29.6291L28.2326 12.7327H23.2824L23.5953 10.9784H26.5679L26.9191 9.01915L23.9494 9.01611L24.2645 7.26612H27.3483L27.7515 5H8.4526L7.35415 11.1275L5.16661 5H1.80777L0 15H3.20773L4.30193 8.70356L6.42468 15H17.9209L19.3187 7.26515H21.1166L19.7189 15H49.9677L50.8448 10.1175L52.2634 15H55.4728L54.0027 11.0104L54.3391 10.9365C55.0799 10.7743 55.6576 10.426 56.06 9.90387C56.4619 9.37692 56.6667 8.70038 56.6667 7.88774C56.6667 6.94165 56.3278 6.24558 55.6304 5.75954L55.6313 5.76012ZM15.1295 12.7327H10.2193L10.5365 10.9783H13.6163L13.9655 9.0023H10.9153L11.2091 7.26622H16.1121L15.1286 12.7326L15.1295 12.7327ZM51.5563 9.70694C52.1962 9.70694 52.6641 9.59477 52.9868 9.36434L52.986 9.36427C53.2286 9.19035 53.5174 8.85209 53.5182 8.22253C53.5182 7.7021 53.27 7.42688 53.0613 7.28775C52.794 7.11036 52.4065 7.0234 51.8752 7.0234H51.4085L50.9219 9.70694H51.5563Z" fill="#ffffff"/>
</svg>
