<svg width="83" height="20" viewBox="0 0 83 20" fill="none" xmlns="http://www.w3.org/2000/svg">
<path d="M0.770418 6.68314C0.911375 6.62088 1.05233 6.57231 1.19329 6.54184C1.4523 5.30191 2.5478 4.37196 3.8609 4.37196C5.17489 4.37196 6.27083 5.30323 6.52939 6.54272C6.93244 6.61956 7.26589 6.78294 7.52578 7.02624C7.53636 6.78824 7.52667 6.55906 7.49847 6.34313C7.33241 4.46999 5.76558 3 3.85518 3C1.88838 3 0.2872 4.56272 0.203947 6.51623C0.192495 6.68491 0.188971 6.86065 0.195138 7.04435C0.360321 6.90481 0.548852 6.7794 0.770418 6.68314Z" fill="#ffffff"/>
<path d="M46.8497 5.91304C46.8607 5.41407 47.044 5.01356 47.4034 4.71329C47.7523 4.40817 48.2104 4.25141 48.7769 4.24258H49.9164V6.02785H49.2262C48.8469 6.03668 48.6535 6.21861 48.6452 6.5701V6.96133H49.9164V8.81107H48.6452V14.2662H46.8497V5.91304Z" fill="#ffffff"/>
<path fill-rule="evenodd" clip-rule="evenodd" d="M11.1598 7.4581C10.8881 7.78574 10.748 8.26485 10.7387 8.89541V17H12.5333V14.2654H14.9591C15.4141 14.2552 15.8048 14.0852 16.1321 13.7514C16.4625 13.4339 16.6334 13.0541 16.6417 12.6165V8.82343C16.6237 7.59101 16.0484 6.9706 14.9168 6.96089H12.3514C12.1399 6.96089 11.9219 7.0099 11.6968 7.11102C11.4801 7.20596 11.3021 7.32077 11.1598 7.4581ZM14.4406 8.80886C14.7023 8.81858 14.8371 8.9665 14.8463 9.25308V11.9718C14.8463 12.0928 14.8023 12.1904 14.7102 12.2664C14.6221 12.3675 14.5115 12.4169 14.3785 12.4169H13.0976C12.7302 12.4068 12.5412 12.2266 12.5333 11.8734V9.35332C12.5412 9.0111 12.7121 8.82917 13.0429 8.80886H14.4406Z" fill="#ffffff"/>
<path fill-rule="evenodd" clip-rule="evenodd" d="M21.7281 8.80886C22.0593 8.80003 22.2201 8.93206 22.2109 9.20848V9.38953H19.8238C18.6755 9.4094 18.0954 9.98786 18.0861 11.1262V12.6179C18.1046 13.7072 18.7116 14.2552 19.9089 14.2654H22.3686C22.8474 14.2654 23.2381 14.0984 23.5411 13.7664C23.831 13.4458 23.9803 13.0426 23.9904 12.5538V8.68787C23.9702 7.55436 23.3685 6.98032 22.1831 6.96089H18.1139V8.80886H21.7281ZM20.0243 12.3026C19.9296 12.2399 19.8811 12.1564 19.8811 12.0509V11.5921C19.8811 11.3965 19.9133 11.2644 19.9771 11.1978C20.0463 11.1412 20.1705 11.1112 20.3502 11.1112H21.7153C22.0466 11.1112 22.2109 11.2534 22.2109 11.5351V12.0509C22.2016 12.2959 22.04 12.4169 21.7285 12.4169H20.3502C20.2154 12.4169 20.1088 12.3776 20.0243 12.3026Z" fill="#ffffff"/>
<path d="M29.3962 14.9997C29.2962 15.0915 29.1728 15.1428 29.0305 15.1516H25.4489V17H29.6375C30.1578 16.9907 30.5657 16.8057 30.8639 16.4441C31.1577 16.0824 31.3101 15.6055 31.3202 15.0098V6.96089H29.5406V11.9599C29.5406 12.0791 29.4878 12.1807 29.3821 12.2664C29.2724 12.3675 29.1415 12.4169 28.9909 12.4169H27.7241C27.4021 12.4169 27.243 12.2218 27.243 11.8314V6.96089H25.4489V12.4169C25.4489 12.7146 25.4903 12.9623 25.5718 13.157C25.6502 13.3698 25.7793 13.5734 25.9586 13.7681C26.148 13.9518 26.3361 14.0812 26.525 14.1505C26.7039 14.2269 26.9435 14.2654 27.243 14.2654H29.5406V14.7038C29.5406 14.8155 29.4922 14.914 29.3962 14.9997Z" fill="#ffffff"/>
<path d="M32.7293 12.4169H35.9269C36.2194 12.4068 36.3713 12.2893 36.3806 12.0641V11.8981C36.3806 11.85 36.366 11.7965 36.3378 11.7391C36.2665 11.5996 36.1788 11.5303 36.0744 11.5303H34.4891C34.0187 11.521 33.6174 11.3585 33.28 11.045C32.9386 10.7553 32.7637 10.399 32.7536 9.98079V8.60265C32.7721 7.52742 33.3548 6.98032 34.5028 6.96089H38.2113V8.80886H35.0692C34.7005 8.80886 34.5147 8.92235 34.5147 9.14843V9.32727C34.5147 9.56174 34.7045 9.6792 35.0829 9.6792H36.6634C37.0845 9.68891 37.4435 9.85053 37.7426 10.1658C38.0447 10.4833 38.2016 10.8608 38.2113 11.2993V12.6474C38.2016 13.0263 38.0267 13.4043 37.6906 13.7814C37.5267 13.9664 37.3589 14.0936 37.1911 14.1656C37.0175 14.2318 36.7819 14.2654 36.481 14.2654H32.7293V12.4169Z" fill="#ffffff"/>
<path fill-rule="evenodd" clip-rule="evenodd" d="M43.6134 9.20848C43.6214 8.93206 43.4606 8.80003 43.1289 8.80886H39.5155V6.96089H43.5861C44.7702 6.98032 45.3723 7.55436 45.3908 8.68787V12.5538C45.3811 13.0426 45.2305 13.4458 44.9424 13.7664C44.6415 14.0984 44.2504 14.2654 43.7711 14.2654H41.3092C40.1129 14.2552 39.5054 13.7072 39.4887 12.6179V11.1262C39.4966 9.98786 40.0763 9.4094 41.2255 9.38953H43.6134V9.20848ZM41.2819 12.0509C41.2819 12.1564 41.3304 12.2399 41.4273 12.3026C41.511 12.3776 41.618 12.4169 41.751 12.4169H43.132C43.4434 12.4169 43.6042 12.2959 43.6134 12.0509V11.5351C43.6134 11.2534 43.4469 11.1112 43.117 11.1112H41.751C41.5718 11.1112 41.448 11.1412 41.3793 11.1978C41.3154 11.2644 41.2819 11.3965 41.2819 11.5921V12.0509Z" fill="#ffffff"/>
<path fill-rule="evenodd" clip-rule="evenodd" d="M52.7985 11.7864V11.9016C52.7985 12.0496 52.8369 12.167 52.9148 12.2522C52.9712 12.3613 53.047 12.4169 53.1479 12.4169H56.8343V14.2654H52.9148C52.5572 14.2654 52.2783 14.2318 52.0814 14.1647C51.866 14.0936 51.6727 13.9774 51.5039 13.8158C51.3066 13.6202 51.1723 13.4211 51.1049 13.2162C51.0309 13.0025 50.9943 12.719 50.9943 12.3657L50.9789 8.66668C50.9987 7.54906 51.581 6.98032 52.7254 6.96089H55.1446C56.2621 6.98032 56.8282 7.56893 56.8462 8.72982V10.191L52.7985 11.7864ZM55.0199 9.17404V9.13121C55.0199 9.03627 54.9816 8.95546 54.9045 8.89541C54.8208 8.83712 54.7186 8.80886 54.5957 8.80886H53.3465C53.1862 8.80886 53.0571 8.8539 52.9571 8.94619C52.8329 9.03141 52.7699 9.14357 52.7699 9.28178V10.0236L55.0199 9.17404Z" fill="#ffffff"/>
<path d="M60.645 14.2654C60.3732 14.2654 60.1252 14.2402 59.9001 14.1943C59.6645 14.1558 59.4297 14.0463 59.1896 13.8613C58.9434 13.6463 58.7729 13.4052 58.6795 13.1389C58.5809 12.8771 58.5333 12.5803 58.5333 12.2465V8.79738C58.5232 8.5161 58.5514 8.26926 58.617 8.0551C58.6773 7.84138 58.8042 7.63208 58.9958 7.42719C59.2143 7.21214 59.4372 7.06907 59.6724 6.99886C59.8988 6.9419 60.1539 6.9132 60.4397 6.9132H63.1902V7.3455H60.5036C60.0292 7.3455 59.6565 7.44308 59.3839 7.6387C59.1051 7.85198 58.9628 8.21981 58.9628 8.73821V12.1895C58.9628 12.4324 58.9998 12.6686 59.0733 12.8965C59.1487 13.1204 59.2742 13.3169 59.4544 13.4886C59.6499 13.6374 59.8446 13.7302 60.0345 13.7681C60.2323 13.8119 60.4446 13.8326 60.6697 13.8326H63.2333V14.2654H60.645Z" fill="#ffffff"/>
<path fill-rule="evenodd" clip-rule="evenodd" d="M70.6926 12.2756C70.6926 12.5534 70.6715 12.7971 70.6358 13.0117C70.5776 13.2449 70.4583 13.4696 70.2772 13.6834C69.9006 14.0812 69.4337 14.2751 68.8765 14.2654H66.7326C66.1754 14.2654 65.7239 14.0984 65.3741 13.7664C65.0169 13.4383 64.8358 12.9821 64.8358 12.3971V11.2852C64.8539 10.0307 65.4772 9.3882 66.7053 9.35906H70.2772V8.87245C70.2772 8.4715 70.1614 8.12045 69.931 7.81842C69.7848 7.62236 69.6116 7.49122 69.4152 7.42366C69.2165 7.37155 68.9936 7.3455 68.7452 7.3455H64.8486V6.9132H68.5426C68.8804 6.9132 69.1857 6.93704 69.4623 6.98385C69.6046 7.01211 69.7337 7.06775 69.853 7.14812C69.9795 7.22451 70.0975 7.33622 70.2067 7.48283C70.538 7.91115 70.6996 8.40527 70.6926 8.96165V12.2756ZM70.264 9.79047H66.6581C66.2265 9.80019 65.8882 9.93399 65.6446 10.1919C65.3926 10.4537 65.268 10.8127 65.268 11.2689V12.3697C65.268 12.583 65.29 12.7781 65.3358 12.9539C65.3812 13.1389 65.4944 13.3041 65.6732 13.4458C65.9846 13.7046 66.3295 13.8326 66.7066 13.8326H68.8914C69.8046 13.8229 70.264 13.3407 70.264 12.3834V9.79047Z" fill="#ffffff"/>
<path d="M74.7249 7.3455C73.7249 7.36404 73.232 7.91115 73.2505 8.9877V14.2654H72.8211V8.98947C72.8008 7.6047 73.4584 6.9132 74.794 6.9132H75.2715V7.3455H74.7249Z" fill="#ffffff"/>
<path fill-rule="evenodd" clip-rule="evenodd" d="M82.4176 12.2218C82.3797 13.6145 81.6445 14.2971 80.2125 14.2684H78.6192C78.2827 14.2684 77.9818 14.2389 77.7158 14.1828C77.4418 14.1117 77.1797 13.9443 76.9273 13.6834C76.7375 13.4489 76.6154 13.2118 76.5665 12.9689C76.5009 12.7265 76.4723 12.4567 76.4824 12.1622V9.02214C76.5009 7.60779 77.2114 6.90481 78.6157 6.91541H81.9885V4.53137H82.4176V12.2218ZM81.9885 7.3477H78.5897C78.3448 7.3477 78.1254 7.37508 77.9277 7.42719C77.7206 7.474 77.5207 7.59984 77.3334 7.80473C77.1542 7.99152 77.0414 8.17653 76.9943 8.36155C76.9313 8.54834 76.9026 8.77221 76.9128 9.03318V12.3979C76.9128 12.9574 77.0744 13.3381 77.4022 13.5425C77.5638 13.6374 77.7413 13.7085 77.9404 13.7562C78.1387 13.8092 78.3598 13.8353 78.6034 13.8353H80.0896C80.6446 13.8353 81.0988 13.7072 81.4476 13.4489C81.7983 13.2065 81.9767 12.7883 81.9885 12.1922V7.3477Z" fill="#ffffff"/>
<path d="M1.61308 6.96089H5.99596C7.12802 6.9706 7.70374 7.59101 7.7218 8.82343V12.4019C7.70374 13.6326 7.12802 14.2552 5.99596 14.2654H1.61308C1.40208 14.2654 1.1836 14.2155 0.958508 14.1165C0.741346 14.0207 0.563388 13.9059 0.420669 13.7664C0.148886 13.4405 0.00969063 12.9618 0 12.3299V8.89541C0.00969063 8.26485 0.148886 7.78574 0.420669 7.4581C0.563388 7.32077 0.741346 7.20596 0.958508 7.11102C1.1836 7.0099 1.40208 6.96089 1.61308 6.96089Z" fill="#ffffff"/>
</svg>
