<svg width="46" height="20" viewBox="0 0 46 20" fill="none" xmlns="http://www.w3.org/2000/svg">
<g clip-path="url(#clip0_2262_5484)">
<path fill-rule="evenodd" clip-rule="evenodd" d="M15.8535 9.01274V8.88588C15.8535 7.44258 15.2478 6.74465 14.2917 6.74465C13.2878 6.74465 12.6981 7.45832 12.6981 8.9018V9.02869C12.6981 10.4245 13.3036 11.1382 14.2439 11.1382C15.2001 11.1382 15.8535 10.4245 15.8535 9.01274ZM9.79763 9.06038V8.93349C9.79748 6.11011 11.423 4.6033 13.2876 4.6033C14.5466 4.6033 15.2956 5.14265 15.7737 5.98327V4.82557H18.6264V13.1209H15.7737V11.7885C15.3434 12.6292 14.467 13.3112 13.2716 13.3112C11.423 13.3112 9.79763 11.9313 9.79763 9.06038ZM6.07172 9.09968V8.97213C6.07172 7.50413 5.43423 6.80204 4.43039 6.80204C3.39439 6.80204 2.77297 7.55201 2.77297 8.95619V9.08379C2.77297 10.504 3.39439 11.222 4.43039 11.222C5.49808 11.222 6.07172 10.472 6.07172 9.09968ZM5.4503 4.64779C7.39454 4.64779 8.9723 6.11579 8.9723 8.97213V9.09968C8.9723 11.9719 7.39444 13.4081 5.43423 13.4081C4.17526 13.4081 3.26687 12.8177 2.85269 11.9879V16.009H0V4.87122H2.85269V6.11579C3.33047 5.31803 4.19133 4.64779 5.4503 4.64779ZM25.9987 4.87059L24.405 9.32317L22.6839 4.87059H19.5922L22.9229 12.3715L21.5364 16.01H24.2615L28.7238 4.87059H25.9987ZM28.9306 13.166V11.1994L32.7235 7.01199H29.3928L29.3769 4.87059H36.0541V6.96429L32.4207 11.0087H36.3252V13.1658L28.9306 13.166ZM41.9196 7.69014C39.5574 7.69014 37.8197 9.5624 37.7857 11.8469C37.7857 14.1485 39.5235 15.9864 41.9196 15.9864C44.3328 15.9864 46.1213 14.1485 46.1213 11.8469C46.1213 9.5624 44.3325 7.69014 41.9196 7.69014Z" fill="white"/>
</g>
<defs>
<clipPath id="clip0_2262_5484">
<rect width="46" height="20" fill="white"/>
</clipPath>
</defs>
</svg>
