<svg width="36" height="20" viewBox="0 0 36 20" fill="none" xmlns="http://www.w3.org/2000/svg">
<path fill-rule="evenodd" clip-rule="evenodd" d="M4.43931 7.83129C4.06989 7.80719 3.21577 7.75146 3.21577 6.98127C3.21577 6.05157 4.44589 6.05157 4.90731 6.05157C5.71855 6.05157 6.76924 6.29141 7.51964 6.51642C7.51964 6.51642 7.93831 6.66423 8.2945 6.81554L8.32759 6.8246V4.27823L8.28217 4.26485C7.39653 3.95461 6.3668 3.6561 4.45781 3.6561C1.1662 3.6561 0 5.57663 0 7.22193C0 8.17036 0.405723 10.4028 4.17561 10.6603L4.17912 10.6605C4.50116 10.6802 5.34304 10.7318 5.34304 11.525C5.34304 12.1825 4.64875 12.5699 3.48112 12.5699C2.20147 12.5699 0.959635 12.2432 0.205739 11.9332V14.5555C1.33473 14.8518 2.60698 15 4.09854 15C7.31698 15 8.75839 13.1828 8.75839 11.3819C8.75839 9.33989 7.14536 8.01287 4.43931 7.83129ZM14.1693 6.66094C14.1653 6.67083 14.1599 6.68495 14.153 6.70306C14.0452 6.98465 13.5684 8.23035 12.5057 9.51858V3.6561L9.49255 4.2525V14.8794H12.5057V11.5945C13.3786 12.9053 13.8094 14.8794 13.8094 14.8794H17.4185C17.0615 13.3928 15.4999 10.6517 15.4999 10.6517C16.9014 8.87195 17.517 6.9755 17.6148 6.66094H14.1693ZM25.1957 5.88296C25.9911 5.88296 26.6355 5.23778 26.6355 4.44189C26.6355 3.64581 25.9911 3 25.1957 3C24.4017 3 23.7574 3.64581 23.7574 4.44189C23.7574 5.23778 24.4017 5.88296 25.1957 5.88296ZM18.0216 10.2607C18.0216 7.84982 19.3919 6.63706 22.0905 6.55018C22.0905 6.55018 22.5772 6.53124 22.865 6.59259V8.99156C21.1549 9.05044 20.9662 9.66948 20.9662 11.1128V14.8794H18.0216V10.2607ZM26.6566 14.8794H23.7362V6.67041H26.6566V14.8794ZM32.1559 4.17921V14.8794H35.0769V3.6561L32.1559 4.17921ZM30.8119 3.6561L27.8939 4.17921V14.8794H30.8119V3.6561Z" fill="#ffffff"/>
</svg>
