<svg width="37" height="20" viewBox="0 0 37 20" fill="none" xmlns="http://www.w3.org/2000/svg">
<g clip-path="url(#clip0_1838_12096)">
<path d="M24.0532 4.01849C21.4331 4.01849 19.0917 5.37733 19.0917 7.88787C19.0917 10.767 23.2443 10.9659 23.2443 12.4122C23.2443 13.0213 22.5468 13.5664 21.3554 13.5664C19.6647 13.5664 18.401 12.8047 18.401 12.8047L17.8603 15.3381C17.8603 15.3381 19.316 15.9815 21.2487 15.9815C24.1133 15.9815 26.3674 14.556 26.3674 12.0025C26.3674 8.9602 22.1975 8.76725 22.1975 7.42476C22.1975 6.94768 22.7701 6.42495 23.958 6.42495C25.2984 6.42495 26.3919 6.97896 26.3919 6.97896L26.9211 4.5321C26.9211 4.5321 25.7312 4.01849 24.0532 4.01849ZM0.0819363 4.20316L0.0184937 4.5725C0.0184937 4.5725 1.12077 4.77435 2.11354 5.177C3.39183 5.63872 3.48289 5.90751 3.69817 6.74235L6.04411 15.7911H9.18885L14.0336 4.20316H10.896L7.78301 12.0819L6.51272 5.40351C6.39622 4.63917 5.80612 4.20316 5.08382 4.20316H0.0819363ZM15.2952 4.20316L12.8339 15.7911H15.8258L18.2785 4.20316H15.2952ZM31.9821 4.20316C31.2606 4.20316 30.8784 4.58964 30.5979 5.265L26.2146 15.7911H29.3521L29.9591 14.0367H33.7815L34.1507 15.7911H36.9191L34.5039 4.20316H31.9821ZM32.3901 7.33387L33.3201 11.6822H30.8286L32.3901 7.33387Z" fill="#ffffff"/>
</g>
<defs>
<clipPath id="clip0_1838_12096">
<rect width="36.9375" height="12" fill="white" transform="translate(0 4)"/>
</clipPath>
</defs>
</svg>
